<?xml version="1.0" standalone="no"?>
<!DOCTYPE svg PUBLIC "-//W3C//DTD SVG 1.1//EN" "http://www.w3.org/Graphics/SVG/1.1/DTD/svg11.dtd" >
<svg xmlns="http://www.w3.org/2000/svg">
<metadata>
Created by FontForge 20120731 at Wed Jun 14 13:05:43 2017
 By admin
</metadata>
<defs>
<font id="DtdreamFont" horiz-adv-x="1024" >
  <font-face 
    font-family="DtdreamFont"
    font-weight="500"
    font-stretch="normal"
    units-per-em="1024"
    panose-1="2 0 6 3 0 0 0 0 0 0"
    ascent="896"
    descent="-128"
    x-height="792"
    bbox="0 -128 1024 896"
    underline-thickness="0"
    underline-position="0"
    unicode-range="U+0078-E6E1"
  />
<missing-glyph 
 />
    <glyph glyph-name=".notdef" 
 />
    <glyph glyph-name=".notdef" 
 />
    <glyph glyph-name=".null" horiz-adv-x="0" 
 />
    <glyph glyph-name="nonmarkingreturn" horiz-adv-x="341" 
 />
    <glyph glyph-name="x" unicode="x" horiz-adv-x="1001" 
d="M281 543q-27 -1 -53 -1h-83q-18 0 -36.5 -6t-32.5 -18.5t-23 -32t-9 -45.5v-76h912v41q0 16 -0.5 30t-0.5 18q0 13 -5 29t-17 29.5t-31.5 22.5t-49.5 9h-133v-97h-438v97zM955 310v-52q0 -23 0.5 -52t0.5 -58t-10.5 -47.5t-26 -30t-33 -16t-31.5 -4.5q-14 -1 -29.5 -0.5
t-29.5 0.5h-32l-45 128h-439l-44 -128h-29h-34q-20 0 -45 1q-25 0 -41 9.5t-25.5 23t-13.5 29.5t-4 30v167h911zM163 247q-12 0 -21 -8.5t-9 -21.5t9 -21.5t21 -8.5q13 0 22 8.5t9 21.5t-9 21.5t-22 8.5zM316 123q-8 -26 -14 -48q-5 -19 -10.5 -37t-7.5 -25t-3 -15t1 -14.5
t9.5 -10.5t21.5 -4h37h67h81h80h64h36q23 0 34 12t2 38q-5 13 -9.5 30.5t-9.5 34.5q-5 19 -11 39h-368zM336 498v228q0 11 2.5 23t10 21.5t20.5 15.5t34 6h188q31 0 51.5 -14.5t20.5 -52.5v-227h-327z" />
    <glyph glyph-name="goback" unicode="&#xe64a;" 
d="M623 611h-175v142l-384 -192l384 -192v142h189q225 0 225 -188q0 -195 -232 -195h-442v-100h446q317 0 317 285q0 298 -328 298z" />
    <glyph glyph-name="quotaManagement" unicode="&#xe66d;" 
d="M125 355q1 -1 3 -1q10 0 18 7.5t9 17.5q9 84 56 154.5t121 112.5q10 6 13 17t-3 21t-17 13t-21 -3q-86 -48 -140 -130t-64 -179q-2 -11 5.5 -20t19.5 -10zM125 355zM682 38q-81 -45 -174 -45q-109 0 -198 59q-10 7 -21.5 5t-18 -11.5t-4 -21t11.5 -17.5q104 -70 230 -70
q108 0 202 53q10 6 13 17t-2.5 21t-17 13t-21.5 -3zM682 38zM705 632q67 -44 107.5 -111t47.5 -145q2 -16 2 -34q0 -11 8 -19t19.5 -8t20 8t8.5 19q0 20 -2 39q-9 90 -55.5 168t-123.5 129q-10 7 -21.5 5t-18 -12t-4 -21t11.5 -18zM705 632zM412 730.5q0 -41.5 29.5 -70.5
t71.5 -29t72 29t30 70.5t-30 71t-72 29.5t-71.5 -29.5t-29.5 -71zM412 731zM67 167.5q0 -41.5 29.5 -70.5t71.5 -29t71.5 29t29.5 70.5t-29.5 70.5t-71.5 29t-71.5 -29t-29.5 -70.5zM67 167zM758 164.5q0 -41.5 29.5 -70.5t71.5 -29t71.5 29t29.5 70.5t-29.5 71t-71.5 29.5
t-71.5 -29.5t-29.5 -71zM758 165z" />
    <glyph glyph-name="resourceOverview" unicode="&#xe602;" 
d="M646 520q-32 32 -75 46l126 223q1 1 1 2q0 6 -6 6q-3 0 -5 -3l-135 -223q-19 4 -40 4q-79 0 -134.5 -55.5t-55.5 -134t55.5 -134t134 -55.5t134 55.5t55.5 134.5v0q0 78 -55 134zM512 260q-52 0 -89 37t-37 89t37 88.5t89 36.5h1.5h1.5l-55 -90q-8 -13 -10 -27
q-8 -13 2.5 -35.5t32.5 -32.5q11 -5 24 -5v0q18 0 34.5 10.5t24.5 29.5q5 10 6 23l28 88q35 -36 35 -86v0q0 -52 -36.5 -89t-88.5 -37zM852 677q108 -124 108 -290q0 -92 -35 -175t-95 -143t-143 -96t-174.5 -36t-174.5 35.5t-143 95.5t-95.5 143t-35.5 175
q0 116 54.5 215.5t149.5 161t209 70.5h2q14 0 23 -9.5t9 -22.5v0v0q0 -13 -8.5 -22t-20.5 -10q-150 -12 -252 -122t-102 -261v0q0 -105 51.5 -193t140 -139.5t192.5 -51.5t192.5 51.5t140 140t51.5 192.5q0 142 -93 250q-7 9 -7 21q0 13 9 22.5t23 9.5q15 0 24 -11v-1z" />
    <glyph glyph-name="bigdata-yunwei" unicode="&#xe607;" 
d="M290 163v413h128v-400q33 6 64 14v399q0 21 -15 36t-36 15h-154v0q-21 0 -36 -15t-15 -36v0v-421q29 -5 64 -5zM418 46v-46h-128v35v0q-34 0 -67 4l3 -52q0 -21 15 -36t36 -15h154q21 0 36 15t15 36v71q-32 -7 -64 -12v0zM610 234v534h128v-467q103 66 166 169l-102 311
v0q0 21 -15 36t-36 15h-154v0q-21 0 -36 -15t-15 -36v0v-572q32 11 64 25zM738 153v-153h-128v96l-24 -8q-20 -7 -40 -13v-88q0 -21 15 -36t36 -15h154q21 0 36 15t15 36v0v203q-30 -20 -64 -37zM955 456q-20 60 -118 81v-65q49 -14 57 -37q5 -16 -11.5 -45.5t-54.5 -63.5
q-101 -90 -272 -147q-144 -48 -267 -48q-69 0 -111 14.5t-48 33.5q-6 15 9.5 43.5t51.5 61.5v83q-72 -54 -105 -108.5t-17 -99.5q15 -45 73.5 -68.5t146.5 -23.5q134 0 287 51q121 40 214.5 99.5t138 123t26.5 115.5z" />
    <glyph glyph-name="service" unicode="&#xe609;" 
d="M224 544h384v-64h-384v64zM224 416h384v-64h-384v64zM224 288h384v-64h-384v64zM789 281v0q-50 0 -92 -27t-63 -72h-1q-50 0 -85.5 -36.5t-35.5 -87t35.5 -86.5t85.5 -36h156q70 0 120.5 50.5t50.5 122t-50.5 122t-120.5 50.5zM633 0v0q-24 0 -40.5 17t-16.5 41v1
q0 24 16.5 41t40.5 17q8 0 16 -2l2 -1q25 -9 36 -33q7 -12 26 -12q23 0 30 22q2 5 2 10q0 8 -4 15q-21 40 -62 56q69 44 110 44v0q44 0 75 -31q31 -32 31 -76.5t-31 -76.5t-75 -32v0h-156v0zM485 0h-348q-9 0 -9 9v0v749q0 10 9 10v0h407v-141q0 -8 5.5 -13.5t13.5 -5.5v0
h141v-311q35 15 75 16l-11 348q0 11 -8 18l-146 146q-6 7 -16 7v0h-498v0q-15 0 -25.5 -11t-10.5 -26v-823q0 -15 10.5 -25.5t25.5 -10.5h434q-44 34 -57 87zM608 741l69 -69h-62v0q-7 0 -7 7v0v62z" />
    <glyph glyph-name="operlog" unicode="&#xe60a;" 
d="M593 480h-354q-6 0 -10.5 4t-4.5 10v0v35q0 6 4.5 10.5t10.5 4.5h354v0q6 0 10.5 -4.5t4.5 -10.5v-35v0q0 -6 -4.5 -10t-10.5 -4v0zM593 352h-354q-6 0 -10.5 4t-4.5 10v0v35q0 6 4.5 10.5t10.5 4.5h354v0q6 0 10.5 -4.5t4.5 -10.5v-35v0q0 -6 -4.5 -10t-10.5 -4v0z
M771 -64h-69v0q-21 0 -36 14t-17 35l-2 14q-6 3 -11 6l-13 -5q-11 -5 -23 -5q-30 0 -46 26l-34 60q-7 12 -7 27q0 27 23 43l11 9q-1 3 -1 6q0 5 1 7l-11 9q-23 16 -23 43q0 15 7 27l34 60q16 26 46 26q12 0 23 -5l13 -5q5 3 11 6l2 14q2 21 17 35t36 14v0h69v0q21 0 36 -14
t17 -35l1 -14l12 -6l13 5q10 5 23 5q30 0 45 -26l35 -60q7 -12 7 -27q0 -27 -23 -43l-11 -9v-6.5v-6.5l11 -9q23 -16 23 -43q0 -15 -7 -27l-35 -60q-15 -26 -45 -26q-12 0 -23 5l-13 5l-12 -6l-1 -14q-2 -21 -17 -35t-36 -14v0v0zM705 -8h63l6 45l15 6q30 13 51 38l-10 -12
l41 -17l32 55l-36 28l2 15q1 8 1 16.5t-1 16.5l-2 15l36 28l-32 55l-41 -17l-13 10q-25 19 -57 24l14 -2l-6 45h-63l-6 -45l-15 -6q-30 -13 -51 -38l10 12l-42 17l-31 -55l35 -28l-2 -15q-1 -8 -1 -16.5t2 -16.5l1 -15l-35 -28l31 -55l42 17l13 -10q25 -19 57 -24l-14 2z
M736 54v0q-46 0 -79 33t-33 79.5t33 79.5t79.5 33t79.5 -33t33 -79.5t-33 -79.5t-80 -33v0zM736 223v0v0v0zM492 267l2 4q2 3 2 6q0 4 -3.5 7t-7.5 3h-246q-6 0 -10.5 -4t-4.5 -10v-35q0 -6 4.5 -10t10.5 -4v0h232q10 0 10 9q2 22 14 39zM624 -44q-3 8 -11 8h-2
q-5 -1 -11 -1q-44 0 -69 36l-394 1v0q-9 0 -9 9v0v749q0 10 9 10v0h407v-141v0q0 -8 5.5 -13.5t14.5 -5.5v0h140v-179h64v232q0 11 -8 18l-146 146q-6 7 -16 7v0h-498q-15 0 -25.5 -11t-10.5 -26v0v-823v0q0 -15 10.5 -25.5t25.5 -10.5h515q5 0 8.5 3.5t3.5 7.5q0 3 -2 6
q-1 2 -1 3v0zM608 741l69 -69h-62v0q-7 0 -7 7v0v62zM736 191v0v0z" />
    <glyph glyph-name="apply" unicode="&#xe60b;" 
d="M224 544h384v-64h-384v64zM224 416h384v-64h-384v64zM736 320q66 0 113 -47t47 -113t-47 -113t-113 -47t-113 47t-47 113t47 113t113 47zM736 384q-93 0 -158.5 -65.5t-65.5 -158.5t65.5 -158.5t158.5 -65.5t158.5 65.5t65.5 158.5t-65.5 158.5t-158.5 65.5zM514 288
h-275q-6 0 -10.5 -4.5t-4.5 -10.5v0v-34v0q0 -6 4.5 -10.5t10.5 -4.5v0h249q15 56 51 100zM536 0h-399q-9 0 -9 9v0v750q0 9 9 9v0h407v-140q0 -8 6 -14t14 -6v0h140v-194q15 2 32 2t33 -2l-1 247q0 11 -8 19l-145 145q-7 7 -16 7v0h-499v0q-15 0 -25.5 -10.5t-10.5 -25.5v0
v-824q0 -15 10.5 -25.5t25.5 -10.5v0h512q-70 39 -105 110zM608 741l69 -69h-62v0q-7 0 -7 7v0v62zM818 192h-50v50q0 6 -4 10t-10 4v0h-36q-6 0 -10 -4t-4 -10v0v-50h-50v0q-6 0 -10 -4t-4 -10v0v-36q0 -6 4 -10t10 -4h50v-50q0 -6 4 -10t10 -4v0h36q6 0 10 4t4 10v0v50h50
v0q6 0 10 4t4 10v0v36q0 6 -4 10t-10 4z" />
    <glyph glyph-name="task-center" unicode="&#xe60c;" 
d="M240 543h354q6 0 10.5 -4t4.5 -10v0v-35q0 -6 -4.5 -10t-10.5 -4h-354q-6 0 -10.5 4t-4.5 10v35v0q0 6 4.5 10t10.5 4zM240 416h354q6 0 10.5 -4.5t4.5 -10.5v-35q0 -6 -4.5 -10t-10.5 -4h-354q-6 0 -10.5 4t-4.5 10v35v0q0 6 4.5 10.5t10.5 4.5zM736.5 384
q-92.5 0 -158 -65.5t-65.5 -158.5t65.5 -158.5t158 -65.5t158 66t65.5 158t-65.5 158t-158 66zM736 0q-66 0 -112.5 47t-46.5 113t46.5 113t112.5 47t113 -47t47 -113t-47 -113t-113 -47v0zM490 288h-250q-6 0 -10.5 -4.5t-4.5 -10.5v0v-34v0q0 -6 4.5 -10.5t10.5 -4.5v0
h232q16 0 21 16q15 42 42 77l-30 -45v1v0q0 6 -4.5 10.5t-10.5 4.5v0zM527 1l-387 -1v0q-10 0 -10 9l-2 748v0q0 9 10 9l406 1v-140q0 -8 6 -13.5t14 -5.5v0h140v-179q0 -6 4 -9.5t9 -3.5h2h17h18h1q6 0 9.5 3.5t3.5 9.5v232q0 11 -8 19l-146 145q-7 7 -16 7v0l-498 -2
q-15 0 -25.5 -10.5t-10.5 -25.5v0l2 -822q0 -15 10.5 -25.5t25.5 -10.5h1l467 1q9 0 12 9t-4 15q-50 40 -75 97q32 -57 24 -57v0v0zM608 741l69 -69h-62v0q-7 0 -7 7v62zM684 70l-59 45q-8 7 -8 17q0 8 4 13l13 17q7 8 17 8q7 0 13 -4l35 -27q2 -1 5 -1q4 0 6 3l78 99
q6 8 16 8q8 0 14 -5l16 -13q8 -6 8 -17q0 -7 -4 -13l-96 -122q-13 -16 -33 -16q-14 0 -25 8v0z" />
    <glyph glyph-name="projects-manage" unicode="&#xe60d;" 
d="M697 640q7 0 7 -7v-627q0 -6 -7 -6h-499q-6 0 -6 6v627q0 6 6 6h499v1zM697 703h-499q-29 0 -49.5 -20.5t-20.5 -49.5v0v-627q0 -29 20.5 -49.5t49.5 -20.5v0h499v0q29 0 50 20.5t21 49.5v0v627q0 29 -21 49.5t-50 20.5v0zM878 64h-29q-7 0 -12 5t-5 12v0v636
q0 21 -15 36t-35 15v0h-509q-7 0 -12 5t-5 12v0v29q0 7 5 12.5t12 5.5v0h533q37 0 63.5 -26.5t26.5 -63.5v-661q0 -7 -5.5 -12t-12.5 -5v0zM256 480h384v-64h-384v64zM256 352h384v-64h-384v64zM256 224h384v-64h-384v64z" />
    <glyph glyph-name="monitor-phy" unicode="&#xe60e;" 
d="M928 768h-833v0q-13 0 -22 -9t-9 -23v0v-547v0q0 -13 9 -22.5t22 -9.5v0h385v-93h-142q-8 0 -13.5 -5.5t-5.5 -12.5v0v-27q0 -8 5.5 -13.5t13.5 -5.5h346v0q8 0 13.5 5.5t5.5 13.5v0v27q0 7 -5.5 12.5t-13.5 5.5v0h-141v93h385v0q13 0 22.5 9.5t9.5 22.5v0v547v0
q0 14 -9.5 23t-22.5 9v0zM896 221h-769v484h769v-484zM193 300h1q13 0 22 9l108 109l73 -73q9 -9 22.5 -9t22.5 9l227 227l144 -144q9 -9 22.5 -9t22.5 9.5t9 22.5t-9 22l-166 167q-10 9 -23 9t-22 -9l-228 -227l-72 72q-10 10 -23 10t-22 -10l-131 -131q-9 -9 -9 -22
t9 -22.5t22 -9.5v0z" />
    <glyph glyph-name="monitor" unicode="&#xe60f;" 
d="M945 344q-8 21 -30 21q-13 0 -22 -9.5t-9 -22.5q0 -6 2 -12q10 -26 10 -56q0 -63 -43 -109t-106 -49q-3 0 -6 -1h-466q-4 1 -7 1q-60 6 -100.5 51t-40.5 107q0 65 46 111.5t111 46.5h6h2q13 0 22 9t9 22v2v5v3q0 82 58 140t140 58v0q56 0 103 -28.5t72 -76.5
q10 -18 29 -18q8 0 15 4q16 9 16 28q0 8 -3 15q-34 63 -96 101t-136 38v0q-102 0 -177.5 -69.5t-83.5 -170.5q-83 -9 -139.5 -72.5t-56.5 -147.5t55 -146.5t137 -73.5q5 -2 11 -2v0h481v0q4 0 8 1q85 7 144.5 70.5t59.5 150.5v0q0 42 -16 81zM603 274l-149 149q-7 9 -18 12
h-7q-14 0 -23 -9l-197 -197q-9 -9 -9 -22.5t9 -22.5t22 -9t23 9l174 175l153 -152q9 -10 22 -10v0q13 0 22 9l219 220q15 -7 32 -7v0q35 0 59 24.5t24 58.5t-24 58.5t-58.5 24.5t-59 -24.5t-24.5 -58.5q0 -17 7 -32zM876 522q8 0 14 -6t6 -14t-6 -14t-14 -6t-14 6t-6 14
t6 14t14 6z" />
    <glyph glyph-name="cloudProductManagement" unicode="&#xe614;" 
d="M881 619l-354 208q-7 5 -15 5t-15 -5l-354 -208q-15 -9 -15 -26v0v-418v-1q0 -17 15 -26l354 -208q7 -4 15 -4t15 4l354 208q15 9 15 26v1v418v0q0 17 -15 26v0zM512 761l289 -170l-111 -65l-284 173zM512 420l-289 171l120 71l284 -173zM192 535l288 -171v-339l-288 169
v341zM544 25v339l288 171v-341z" />
    <glyph glyph-name="expire-date" unicode="&#xe615;" 
d="M736.5 386q-92.5 0 -158 -66t-65.5 -159t65.5 -159t158 -66t158.5 66t66 159t-66 159t-158.5 66zM737 0q-67 0 -113.5 47t-46.5 113.5t46.5 114t113 47.5t113.5 -47.5t47 -114t-47 -113.5t-113 -47v0zM508 46l-27 -16v338l288 167v-119q46 -6 87 -27l-23 206v0
q0 16 -14 24l-356 209q-7 4 -14.5 4t-13.5 -4l-357 -209q-13 -8 -13 -24v0v-418v0q0 -16 13 -24l357 -209q6 -4 13.5 -4t14.5 4l81 48q-43 49 -57 113zM417 30l-288 168v337l288 -167v-338zM449 423l-290 169l290 169l289 -169zM801 129h-84q-5 0 -8.5 3.5t-3.5 8.5v0v136v0
q0 13 9 22.5t22.5 9.5t23 -9.5t9.5 -22.5v0v-84h32q13 0 22.5 -9.5t9.5 -22.5v0v0q0 -13 -9.5 -22.5t-22.5 -9.5z" />
    <glyph glyph-name="resource-import" unicode="&#xe616;" 
d="M736 386q-93 0 -158.5 -66t-65.5 -159t65.5 -159t158.5 -66t158.5 66t65.5 159t-65.5 159t-158.5 66zM736 0q-66 0 -113 47t-47 113.5t47 114t113 47.5t113 -47.5t47 -114t-47 -113.5t-113 -47v0zM507 46l-27 -16v338l288 167v-119q47 -6 87 -27l-23 206v0q0 16 -14 24
l-356 209q-6 4 -14 4t-14 -4l-356 -209q-14 -8 -14 -24v0v-418v0q0 -16 14 -24l356 -209q6 -4 14 -4t14 4l81 48q-43 49 -57 113zM416 30l-288 168v337l288 -167v-338zM448 423l-289 169l289 169l289 -169zM798 145l-30 -20v141v0q0 7 -5 12t-12 5h-30q-7 0 -12 -5t-5 -12v0
v-141l-30 20q-5 3 -11 3q-10 0 -16 -8l-14 -22q-3 -5 -3 -11q0 -10 8 -15l86 -58q5 -4 12 -4t13 4l85 57q8 6 8 16q0 6 -3 11l-14 22q-6 8 -16 8q-6 0 -11 -3v0z" />
    <glyph glyph-name="bigdata-product-center" unicode="&#xe617;" 
d="M192 433l224 -134v-271l-224 134v271zM155 525q-11 0 -19 -8t-8 -19v0v-357v0q0 -15 13 -23l298 -178q7 -4 14 -4q12 0 20 8t8 19v0v357v0q0 16 -14 24l-298 178q-6 3 -14 3v0zM512 762l256 -153l-255 -152l-256 153zM512 832v0q-8 0 -15 -4l-323 -193q-15 -9 -15 -25.5
t15 -25.5l324 -193q6 -4 14.5 -4t15.5 4l323 193q15 9 15 25.5t-15 25.5l-323 193q-7 4 -16 4v0v0zM128 608v0v0v0zM833 433v-271l-224 -134v271zM870 525q-8 0 -14 -4l-298 -177q-13 -8 -13 -24v0v-357v0q0 -11 8 -19t19 -8q8 0 14 4l298 177q13 9 13 24v0v357v0
q0 11 -8 19t-19 8v0v0z" />
    <glyph glyph-name="undercloud-aliyun" unicode="&#xe619;" 
d="M312 480h-176q-8 0 -8 8v176q0 8 8 8h176q8 0 8 -8v-176q0 -8 -8 -8zM64 711v-270q0 -10 7.5 -17.5t17.5 -7.5h270q10 0 17.5 7.5t7.5 17.5v270q0 10 -7.5 17.5t-17.5 7.5h-270q-10 0 -17.5 -7.5t-7.5 -17.5zM888 480h-368q-8 0 -8 8v176q0 8 8 8h368q8 0 8 -8v-176
q0 -8 -8 -8zM448 711v-270q0 -10 7.5 -17.5t17.5 -7.5h462q10 0 17.5 7.5t7.5 17.5v270q0 10 -7.5 17.5t-17.5 7.5h-462q-10 0 -17.5 -7.5t-7.5 -17.5zM312 96h-176q-8 0 -8 8v176q0 8 8 8h176q8 0 8 -8v-176q0 -8 -8 -8zM64 327v-270q0 -10 7.5 -17.5t17.5 -7.5h270
q10 0 17.5 7.5t7.5 17.5v270q0 10 -7.5 17.5t-17.5 7.5h-270q-10 0 -17.5 -7.5t-7.5 -17.5zM888 96h-368q-8 0 -8 8v176q0 8 8 8h368q8 0 8 -8v-176q0 -8 -8 -8zM448 327v-270q0 -10 7.5 -17.5t17.5 -7.5h462q10 0 17.5 7.5t7.5 17.5v270q0 10 -7.5 17.5t-17.5 7.5h-462
q-10 0 -17.5 -7.5t-7.5 -17.5z" />
    <glyph glyph-name="inventory" unicode="&#xe61a;" 
d="M320 640h384v-64h-384v64zM256 512h512v-64h-512v64zM816 768h-609v0q-15 0 -20 -14l-122 -429q-1 -4 -1 -9v0v-295q0 -8 6 -14.5t14 -6.5v0h855v0q9 0 15 6.5t6 14.5v0v295q0 5 -2 9l-122 428q-5 15 -20 15zM242 704h540l107 -384h-215q-13 0 -24 -8t-14 -21
q-10 -43 -45 -71t-79.5 -28t-79.5 28t-45 70q-3 14 -14 22t-24 8h-215zM888 64h-752q-8 0 -8 9v0v183h192v0q10 0 14 -9q22 -53 70.5 -86t107.5 -33t107 33t70 86q4 9 15 9v0h192v-183v0q0 -9 -8 -9v0z" />
    <glyph glyph-name="resource-phy-detail" unicode="&#xe61b;" 
d="M785 762q-116 38 -273.5 38t-273.5 -38q-131 -43 -131 -116v-522q0 -74 132 -117q115 -38 272.5 -38t273.5 38q131 43 131 117v522q0 73 -131 116zM178 627h281l-59 -70q-82 8 -141 28t-81 42zM511.5 347q-64.5 0 -122 6.5t-97 17t-68.5 23t-43 25t-14 22.5v120
q53 -33 146 -51.5t198.5 -18.5t198.5 18.5t146 51.5v-120q0 -10 -13.5 -22.5t-43 -25t-69 -23t-97 -17t-122 -6.5zM512 244q-65 0 -122.5 7t-97 17.5t-68.5 23t-43 25t-14 22.5v17q53 -32 146 -51t198.5 -19t198.5 19t146 51v-17q0 -10 -13.5 -22.5t-43 -25t-69 -23
t-97 -17.5t-121.5 -7v0zM167 254q53 -32 146 -51t198.5 -19t198.5 19t146 51v-131q0 -10 -13.5 -22t-43 -25t-69 -23.5t-97 -17t-122 -6.5t-122 6.5t-97 17t-68.5 23.5t-43 25t-14 22v131zM512 551q-18 0 -37 1l71 86q7 8 7 19q0 12 -9 21t-21 9h-312q105 53 301 53
q64 0 121.5 -6.5t97 -17t69 -23.5t43 -25t13.5 -22.5t-13.5 -22.5t-43 -25t-69 -23.5t-97 -17t-121.5 -6.5z" />
    <glyph glyph-name="security-console" unicode="&#xe61e;" 
d="M672 832v0q-66 0 -113 -46.5t-47 -113.5q0 -40 19 -75t51 -57l-87 -210q-3 -6 -3 -13q0 -13 9.5 -22.5t22.5 -9.5q22 0 30 20l88 210q14 -3 30 -3q66 0 113 47t47 113.5t-47 113t-113 46.5v0zM672 576.5q-40 -0.5 -68 28t-28 68t28 67.5t68 28t68 -28t28 -67.5t-28 -67.5
t-68 -28.5zM896 448h-244q-4 0 -5 -3l-22 -54q-1 0 -1 -2q0 -4 5 -5h208q5 0 5 -5q0 -1 -1 -2l-133 -182q-2 -2 -4 -2h-547q-5 0 -5 5q0 1 1 3l138 182q1 2 4 2h185q3 0 4 3l23 54v2q0 5 -5 5h-219q-27 -1 -43 -22l-163 -217q-13 -17 -13 -40v0v-190q0 -18 13 -31t31 -13
h630q30 1 48 24l164 219q10 13 10 30v0v201q0 16 -11 27.5t-27 11.5zM699 0h-566q-5 0 -5 5v118q0 5 5 5h566q5 0 5 -5v-118q0 -5 -5 -5v0zM895 217l-118 -165q-1 -3 -4 -3q-5 0 -5 5v105q0 2 1 3l118 162q2 2 4 2q5 0 5 -5v-101q0 -2 -1 -3v0z" />
    <glyph glyph-name="config" unicode="&#xe621;" 
d="M945 192h-361v0q-6 0 -10.5 4.5t-4.5 10.5v34q0 7 4.5 11t10.5 4v0h361v0q6 0 10.5 -4t4.5 -11v-34q0 -6 -4.5 -10.5t-10.5 -4.5v0zM945 64h-361v0q-6 0 -10.5 4.5t-4.5 10.5v34q0 7 4.5 11t10.5 4v0h361v0q6 0 10.5 -4t4.5 -11v-34q0 -6 -4.5 -10.5t-10.5 -4.5v0z
M945 -64h-361v0q-6 0 -10.5 4.5t-4.5 10.5v34q0 7 4.5 11t10.5 4v0h361v0q6 0 10.5 -4t4.5 -11v-34q0 -6 -4.5 -10.5t-10.5 -4.5v0zM504 262q-51 0 -87.5 36t-36.5 86.5t36.5 86.5t88 36t88 -36t36.5 -87q0 -35 -19 -64h73q12 30 12 64v0q0 78 -56 133t-134.5 55t-134.5 -55
t-56 -132.5t56 -132.5t134 -55v65zM489 1h-53l-14 100l-19 7q-78 28 -131 91l24 -27l-94 -39l-69 118l81 62l-3 19q-5 25 -5 53q0 27 5 54l3 16l-81 62l69 117l95 -38l15 13q63 52 144 65l-34 -7l14 100h137l14 -100l19 -7q78 -28 130 -91l-24 27l94 40l70 -119l-81 -62
l3 -19q5 -25 5 -52t-5 -53l-2 -11h97l-27 21q3 20 3 43t-3 45l53 39q26 16 26 46q0 15 -8 28l-77 132q-13 23 -38 27q0 1 -10 1q-14 0 -26 -6l-62 -25q-70 52 -156 66l70 43q-1 22 -17 37t-39 15h-155q-23 0 -39 -15t-17 -37l-9 -66q-83 -35 -139 -101v83q-20 10 -41.5 3.5
t-32.5 -25.5l-78 -132q-7 -13 -7 -28q0 -30 25 -46l54 -40q-3 -21 -3 -44t3 -45l-54 -39q-19 -12 -24 -33.5t6 -40.5l78 -132q13 -22 38 -27q0 -1 10 -1q14 0 26 7l62 24q70 -52 157 -66l-71 -43q1 -22 17 -37t39 -15h62v0q6 0 10.5 4.5t4.5 11.5v34q0 6 -4.5 10.5
t-10.5 4.5v0v0z" />
    <glyph glyph-name="compute" unicode="&#xe622;" 
d="M771 -64h-69v0q-21 0 -36 14t-17 34l-2 14q-6 4 -11 7l-13 -5q-11 -5 -23 -5q-30 0 -46 26l-34 60q-8 12 -8 26q0 28 23 44l11 8v7v7l-10 8q-23 16 -23 44q0 14 7 27l34 59q16 27 46 27q12 0 23 -6l13 -5q5 4 11 7l2 14q2 20 17 34t36 14v0h69v0q21 0 36 -14t16 -34
l2 -14q6 -3 12 -7l13 5q10 6 23 6q30 0 45 -27l35 -60q7 -12 7 -26q0 -28 -23 -43l-11 -9v-6.5v-7.5l11 -8q23 -16 23 -44q0 -14 -7 -26l-35 -60q-15 -26 -45 -26q-12 0 -23 5l-13 5q-6 -3 -12 -7l-2 -13q-1 -21 -16 -35t-36 -14v0zM705 -8h63l6 45l15 6q30 13 50 38l-9 -12
l41 -17l32 54l-36 28l2 16q1 8 1 16.5t-1 16.5l-2 15l36 28l-32 55l-41 -17l-13 9q-26 20 -57 25l14 -2l-6 44h-63l-7 -44l-14 -7q-30 -13 -51 -37l10 12l-42 17l-31 -55l35 -28l-2 -16q-1 -7 -1 -15.5t1 -17.5l2 -15l-35 -28l31 -54l42 17l13 -10q25 -19 57 -25l-15 3z
M736.5 54q-46.5 0 -79.5 33t-33 79.5t33 79.5t79.5 33t79.5 -33t33 -79.5t-33 -79.5t-79.5 -33zM736.5 223q-23.5 0 -40 -16.5t-16.5 -40t16.5 -40t40 -16.5t40 16.5t16.5 39.5v0q0 24 -16.5 40.5t-40 16.5zM754 728q6 0 9.5 -3.5t3.5 -8.5v-102q0 -6 -3.5 -9.5t-9.5 -3.5
h-613q-5 0 -9 3.5t-4 8.5v103q0 5 4 8.5t9 3.5h613zM754 792h-613v0q-32 0 -54.5 -22.5t-22.5 -53.5v-1v-102v0q0 -31 22.5 -53.5t54.5 -22.5v0h613v0q32 0 54.5 22.5t22.5 53.5v0v102v1q0 31 -22.5 53.5t-54.5 22.5v0zM526 5l-11 20q-4 6 -11 6v0h-363v0q-5 0 -9 4t-4 9v0
v102q0 6 4 9.5t9 3.5h358q2 3 2 7t-3 7q-16 21 -17 48q0 -1 -1.5 -0.5t-3.5 1.5t-4 1v0h-331q-32 0 -54.5 -22.5t-22.5 -54.5v-102q0 -31 22.5 -53.5t54.5 -22.5h406q5 0 6 4t-2 6q-23 16 -31 42zM492 267l23 40q1 2 1 4q0 8 -8 8h-367v0q-5 0 -9 4t-4 9v102q0 6 4 9.5
t9 3.5v0h613q6 0 9.5 -3.5t3.5 -9.5v-6h4q26 0 47 -14q2 -1 4 -1q9 0 9 9v0v12q0 32 -22.5 54.5t-54.5 22.5h-613q-32 0 -54.5 -22.5t-22.5 -54.5v-102q0 -32 22.5 -54.5t54.5 -22.5h334v0q10 0 15 9q1 2 2 3z" />
    <glyph glyph-name="departments-manage" unicode="&#xe625;" 
d="M909 191h-45v114q0 33 -27 55.5t-66 22.5h-227v64h86q31 0 52.5 21.5t21.5 52.5v237q0 30 -21.5 51.5t-52.5 21.5v0h-237q-30 0 -51.5 -21.5t-21.5 -52.5v0v-237q0 -30 21.5 -51.5t52.5 -21.5v0h86v-64h-227q-39 0 -66 -22.5t-27 -55.5v-114h-45q-21 0 -36 -15t-15 -36
v-154q0 -21 15 -36t36 -15h154q21 0 36 15t15 36v154q0 21 -15 36t-36 15h-45v114q0 4 8 9t21 5h227v-128h-45q-21 0 -36 -15t-15 -36v-154q0 -21 15 -36t36 -15h154q21 0 36 15t15 36v154q0 21 -15 36t-36 15h-45v128h227q13 0 21 -5t8 -9v-114h-45q-21 0 -36 -15t-15 -36
v-154q0 -21 15 -36t36 -15h154q21 0 36 15t15 36v154q0 21 -15 36t-36 15zM384 521v237q0 9 10 9h237q9 0 9 -9v-237q0 -10 -9 -10h-237q-10 0 -10 10zM256 -1h-128v128h128v-128zM576 -1h-128v128h128v-128zM896 -1h-128v128h128v-128z" />
    <glyph glyph-name="security-center" unicode="&#xe626;" 
d="M512 749q126 -93 269 -117q8 -2 8 -9v0v-298q0 -53 -23 -102t-54.5 -82.5t-74 -64t-70.5 -45.5t-56 -26q-71 30 -132 75q-145 108 -145 245v298v0q0 7 8 9q143 24 270 117zM512 832q-70 -62 -159.5 -100.5t-168.5 -41.5q-5 -1 -9.5 -5t-4.5 -10v0v-350q0 -43 12 -84
t31.5 -74t45 -63t54 -52.5t57 -42t54 -33t45 -22.5t31.5 -13.5l12 -4.5q7 2 19 7t47.5 22.5t68 38t71.5 54.5t67.5 71.5t48 89t19.5 106.5v350v0q0 6 -4 10t-10 5q-79 3 -168.5 41.5t-158.5 100.5zM462 253l-135 107q-7 6 -7 15q0 6 4 11l17 21q5 7 14 7q7 0 12 -4l108 -86
q3 -2 5 -2q4 0 7 3l169 202q5 5 12 5q6 0 10 -3l25 -22q6 -4 6 -11q0 -6 -4 -10l-191 -227q-11 -14 -29 -14q-13 0 -23 8v0z" />
    <glyph glyph-name="alarm" unicode="&#xe62b;" 
d="M871 94l-67 90q-4 6 -4 13v284q0 102 -63.5 181.5t-160.5 101.5v1q0 26 -19 45t-45.5 19t-45 -19t-18.5 -45v-1q-97 -22 -160.5 -101.5t-63.5 -181.5v-284q0 -7 -4 -13l-67 -90q-4 -5 -4 -12q0 -9 6 -15t15 -6h214q0 -53 37.5 -90.5t90.5 -37.5t90.5 37.5t37.5 90.5h214
v0q9 0 15 6t6 15q0 7 -4 13v-1zM512 -3q-27 0 -45.5 18.5t-18.5 45.5h128q0 -27 -19 -45.5t-45 -18.5v0zM255 125l16 21q17 23 17 51v284q0 93 65.5 159.5t158 66.5t158.5 -66.5t66 -159.5v-284q0 -28 17 -51l15 -21h-513zM428 593q-6 3 -12 3q-12 0 -18 -10
q-46 -70 -46 -156v-1v-215q0 -11 7 -18t18 -7h14v0q10 0 17.5 7t7.5 18v215v1q0 67 36 122q3 5 3 11q0 12 -10 18q-9 6 -17 12z" />
    <glyph glyph-name="region" unicode="&#xe631;" 
d="M665 576q16 0 27.5 -11t11.5 -28v-305q0 -17 -11.5 -28.5t-27.5 -11.5h-306q-16 0 -27.5 11.5t-11.5 28.5v305q0 17 11.5 28t27.5 11h306v0zM665 640h-306q-43 0 -73 -30t-30 -73v-305q0 -43 30 -73.5t73 -30.5h306q42 0 72.5 30.5t30.5 73.5v0v305v0q0 43 -30.5 73
t-72.5 30v0v0zM199 256q-56 0 -95.5 40t-39.5 96v305q0 56 39.5 95.5t95.5 39.5h306q56 0 95.5 -39.5t39.5 -95.5h-64q0 30 -21 50.5t-50 20.5h-306q-30 0 -50.5 -20.5t-20.5 -50.5v-305q0 -30 20.5 -51t50.5 -21v-64zM825 -64h-306q-56 0 -95.5 40t-39.5 96h64
q0 -30 20.5 -51t50.5 -21h306q29 0 50 21t21 51v305q0 30 -21 50.5t-50 20.5v64q56 0 95.5 -39.5t39.5 -95.5v-305q0 -56 -39.5 -96t-95.5 -40zM576 448v-128h-128v128h128zM620 512h-217v0q-8 0 -13.5 -5.5t-5.5 -13.5v-217q0 -8 5.5 -13.5t13.5 -5.5v0h217v0q8 0 14 5.5
t6 13.5v0v217q0 8 -6 13.5t-14 5.5v0v0z" />
    <glyph glyph-name="user-conf" unicode="&#xe632;" 
d="M512 768q53 0 90.5 -37.5t37.5 -90.5t-37.5 -90.5t-90.5 -37.5t-90.5 37.5t-37.5 90.5t37.5 90.5t90.5 37.5v0zM512 832q-80 0 -136 -56t-56 -136t56 -136t136 -56t136 56t56 136t-56 136t-136 56zM685 377q64 -17 105.5 -69t41.5 -118v-183q0 -7 -7 -7h-626v0q-7 0 -7 7
v183q0 66 41.5 118t105.5 69q29 -42 75 -66t98 -24t98 24t75 66zM650 447q-15 -42 -53 -69t-85 -27t-85 27t-53 69q-103 -6 -174.5 -80t-71.5 -177v-222q0 -13 9.5 -22.5t22.5 -9.5h704v0q13 0 22.5 9.5t9.5 22.5v0v222q0 103 -71.5 177t-174.5 80v0z" />
    <glyph glyph-name="role-manage" unicode="&#xe633;" 
d="M512 768q53 0 90.5 -38t37.5 -91.5t-37.5 -91t-90.5 -37.5t-90.5 37.5t-37.5 91t37.5 91.5t90.5 38zM512 832q-80 0 -136 -56.5t-56 -136.5t56 -137t136 -57t136 57t56 137t-56 136.5t-136 56.5zM642 387q78 0 134 -56t56 -135v-188v0q0 -7 -7 -7h-260l10 52l61 334h6v0z
M388 387l71 -386h-260q-7 0 -7 7v0v188q0 79 55.5 135t134.5 56h6v0zM642 452h-60l-70 -387l-70 387h-60q-105 0 -179.5 -75t-74.5 -181v-223v0q0 -15 10.5 -26t25.5 -11h696q15 0 25.5 11t10.5 26v0v223q0 106 -74.5 181t-179.5 75v0zM768 258h-128v-129h128v129z" />
    <glyph glyph-name="charge" unicode="&#xe645;" 
d="M512 768q103 0 191 -51.5t139.5 -139.5t51.5 -192t-51.5 -192t-139.5 -139t-192 -51t-192 51t-139 139t-51 192q0 117 63.5 212t167.5 140q72 31 151 31h1v0zM511.5 832q-91.5 0 -174 -35.5t-142.5 -95.5t-95.5 -143t-35.5 -174t35.5 -174t95.5 -143t142.5 -95.5
t174 -35.5t174.5 35.5t143 95.5t95.5 143t35.5 174t-35.5 174t-95.5 143t-143 95.5t-174.5 35.5zM696 384q8 0 8 8v48q0 8 -8 8h-117l107 160q3 4 3 9q0 8 -7 12l-28 19q-4 3 -9 3q-8 0 -12 -7l-121 -182l-121 182q-5 7 -13 7q-5 0 -9 -3l-28 -19q-6 -4 -6 -12q0 -5 2 -9
l107 -160h-116q-9 0 -9 -8v-48q0 -8 9 -8h152v-64h-152q-9 0 -9 -9v-47q0 -8 9 -8h152v-118q0 -4 3 -7t7 -3v0h43v0q5 0 8 3t3 7v0v118h152q8 0 8 8v47q0 9 -8 9h-152v64h152z" />
    <glyph glyph-name="cloud-rds" unicode="&#xe6bf;" 
d="M179 384l-111 192l111 192h222l111 -192l-111 -192h-222zM623 384l-111 192l111 192h222l111 -192l-111 -192h-222zM401 0l-111 192l111 192h222l111 -192l-111 -192h-222z" />
    <glyph glyph-name="form-management" unicode="&#xe6ad;" 
d="M362 457h-239v256h239v-256zM392 773h-298q-13 0 -21.5 -9t-8.5 -21v-316q0 -13 8.5 -21.5t21.5 -8.5h298q13 0 21.5 8.5t8.5 21.5v316q0 12 -8.5 21t-21.5 9zM362 -4h-239v239h239v-239zM392 295h-298q-13 0 -21.5 -9t-8.5 -21v-299q0 -12 8.5 -21t21.5 -9h298
q13 0 21.5 9t8.5 21v299q0 12 -8.5 21t-21.5 9zM840 -4h-239v239h239v-239zM870 295h-298q-13 0 -21.5 -9t-8.5 -21v-299q0 -12 8.5 -21t21.5 -9h298q13 0 21.5 9t8.5 21v299q0 12 -8.5 21t-21.5 9zM719 422l-169 169l169 169l169 -169zM951 612l-211 212q-9 8 -21.5 8
t-20.5 -8l-212 -212q-8 -8 -8 -20.5t8 -21.5l212 -211q8 -9 20.5 -9t21.5 9l211 211q9 9 9 21.5t-9 20.5z" />
    <glyph glyph-name="dashboard" unicode="&#xe6ae;" 
d="M704 641v-641h-513v641h513zM725 705h-554q-18 0 -31 -12.5t-13 -30.5v-682q0 -18 13 -31t31 -13h554q18 0 30.5 13t12.5 31v682q0 18 -12.5 30.5t-30.5 12.5zM832 63h20q18 0 31 12.5t13 30.5v682q0 18 -13 31t-31 13h-554q-18 0 -30.5 -12.5t-12.5 -31.5v-20h532h4h40z
M480 447h-194q-13 0 -22 9.5t-9 22.5t9 22t22 9h194q13 0 22.5 -9t9.5 -22t-9.5 -22.5t-22.5 -9.5zM544 321h-258q-13 0 -22 9t-9 22t9 22.5t22 9.5h258q13 0 22 -9.5t9 -22.5t-9 -22t-22 -9z" />
    <glyph glyph-name="database" unicode="&#xe6af;" 
d="M520 832q-16 0 -32 -1v-470h469q1 16 1 33.5t-1 33.5q-13 161 -127 275.5t-275 127.5q-16 1 -35 1zM555 429v334q57 -5 109 -27q67 -28 118 -79.5t79 -117.5q23 -53 28 -110h-334zM826 297q-7 -42 -24 -82q-26 -63 -75 -111.5t-112 -75.5q-65 -28 -136.5 -28t-136.5 28
q-63 27 -111 75q-49 49 -76 112q-27 65 -27 136.5t27 136.5q27 63 75.5 111.5t111.5 75.5q40 17 83 23v65q-154 -20 -257.5 -137t-103.5 -275q0 -112 55.5 -207.5t151 -151.5t208.5 -56q157 0 274 103.5t137 257.5h-64v0z" />
    <glyph glyph-name="backup-recovery" unicode="&#xe6b0;" 
d="M896 384q0 104 -51.5 192.5t-140 140t-192.5 51.5q-110 0 -202 -57t-140 -152l45 -54l0.5 1.5l0.5 1.5q25 58 69.5 102.5t101.5 68.5q60 25 125 25t124 -25q58 -24 102.5 -68.5t68.5 -102.5q25 -59 25 -124h-59l94 -112l93 112h-64zM807 259q-24 -58 -68.5 -102.5
t-102.5 -68.5q-59 -25 -124 -25t-125 25q-58 25 -102.5 69.5t-68.5 101.5q-25 60 -25 125v0h59l-93 112l-93 -112h63v0q0 -105 51.5 -193.5t140 -140t193.5 -51.5q109 0 200.5 57t140.5 151l-45 54z" />
    <glyph glyph-name="safety-control" unicode="&#xe6b1;" 
d="M839 690q-79 3 -168.5 41.5t-158.5 100.5q-70 -62 -159.5 -100.5t-168.5 -41.5q-5 -1 -9.5 -5t-4.5 -10v-350q0 -44 12 -85t31.5 -73.5t45 -62.5t54 -52.5t57 -42t54 -33t45 -22.5t31.5 -13.5l12 -4.5q7 2 19 7t47.5 22.5t68 38t71.5 54.5t67.5 71.5t48 89t19.5 106.5
v350q0 6 -4 10t-10 5zM789 623v-153h-245v257q114 -75 237 -95q8 -2 8 -9zM242 632q122 20 238 95v-257h-246v153q0 7 8 9zM234 325v81h246v-387q-55 27 -101 61q-145 108 -145 245zM544 20v386h245v-81q0 -46 -18 -90t-43.5 -75.5t-61 -61t-64 -46.5t-58.5 -32z" />
    <glyph glyph-name="success" unicode="&#xe6b2;" 
d="M530 229q-7 -8 -17.5 -8t-17.5 7l-203 209q-10 10 -9.5 23t10 22.5t22.5 9t22 -9.5l167 -171q7 -8 14 0l354 395q9 10 22.5 10.5t23 -8.5t10.5 -22t-8 -23zM823 460q9 -37 9 -75q0 -66 -25 -125q-24 -57 -69 -102q-44 -45 -102 -69q-59 -25 -124.5 -25t-124.5 25
q-57 24 -102 69t-69 102q-25 60 -25 125t25 124q24 57 69 102q44 45 102 69q59 25 124.5 25t124.5 -25q45 -19 82 -50l43 47q-108 92 -249 92q-105 0 -193.5 -51.5t-140 -140t-51.5 -193t51.5 -193t140 -140t193 -51.5t193 51.5t140 140t51.5 193.5q0 67 -23 130z" />
    <glyph glyph-name="system-resource-monitor" unicode="&#xe6b3;" 
d="M928 35h-832q-13 0 -22.5 9t-9.5 22.5t9.5 23t22.5 9.5h832q13 0 22.5 -9.5t9.5 -23t-9.5 -22.5t-22.5 -9zM833 738h-643q-26 0 -44 -18t-18 -44v-447q0 -25 18 -43.5t44 -18.5h643q26 0 44 18.5t18 43.5v447q0 26 -18 44t-44 18zM831 231h-639v160h119l60 88l144 -214
l127 253l60 -127h129v-160v0zM831 439h-98l-90 189l-134 -268l-138 204l-85 -125h-94v235h639v-235v0z" />
    <glyph glyph-name="account-management" unicode="&#xe6b4;" 
d="M511.5 736q71.5 0 136.5 -28q63 -27 112 -75q48 -49 75 -112q28 -65 28 -136.5t-28 -136.5q-27 -63 -75.5 -111.5t-111.5 -75.5q-65 -28 -136.5 -28t-136.5 28q-63 27 -111.5 75.5t-75.5 111.5q-28 65 -28 136.5t28 136.5q27 63 75.5 111.5t111.5 75.5q65 28 136.5 28z
M511.5 800q-112.5 0 -208 -56t-151.5 -151.5t-56 -208t56 -208t151.5 -151t208 -55.5t208 55.5t151 151t55.5 208t-55.5 208t-151 151.5t-208 56zM572 383q41 18 66 55.5t25 83.5q0 62 -44.5 106.5t-107 44.5t-107 -44.5t-44.5 -106.5q0 -46 25 -83.5t66 -55.5
q-69 -13 -126.5 -52t-94.5 -97q17 -32 40 -58q20 39 51 69q37 38 86 58q50 22 105 22t105 -22q49 -20 86 -58q31 -30 50 -69q23 27 40 59q-37 58 -94.5 97t-126.5 51zM424 522q0 36 25.5 61.5t62 25.5t62 -25.5t25.5 -61.5t-25.5 -62t-62 -26t-62 26t-25.5 62z" />
    <glyph glyph-name="tablespace" unicode="&#xe6b5;" 
d="M763 768q29 0 49 -20t20 -48v-631q0 -28 -20 -48.5t-49 -20.5h-502q-29 0 -49 20.5t-20 48.5v631q0 28 20 48t49 20h502v0zM763 832h-502q-55 0 -94 -38.5t-39 -93.5v-631q0 -55 39 -94t94 -39h502q55 0 94 39t39 94v631q0 55 -39 93.5t-94 38.5zM351 639h-64v-64h64v64z
M740 639h-318v-64h318v64zM351 448h-64v-64h64v64zM740 448h-318v-64h318v64zM351 257h-64v-64h64v64zM740 257h-318v-64h318v64z" />
    <glyph glyph-name="parameter-management" unicode="&#xe6b6;" 
d="M319 642q-13 0 -22.5 -9.5t-9.5 -22.5v-387q0 -13 9.5 -22.5t23 -9.5t22.5 9.5t9 22.5v387q0 13 -9.5 22.5t-22.5 9.5zM451.5 832q-13.5 0 -22.5 -9t-9 -23v-577q0 -13 9 -22.5t22.5 -9.5t23 9.5t9.5 22.5v577q0 14 -9.5 23t-23 9zM578 571q-13 0 -22.5 -9.5t-9.5 -22.5
v-316q0 -13 9.5 -22.5t22.5 -9.5t22.5 9.5t9.5 22.5v316q0 13 -9.5 22.5t-22.5 9.5zM705 642q-13 0 -22.5 -9.5t-9.5 -22.5v-387q0 -13 9.5 -22.5t22.5 -9.5t22.5 9.5t9.5 22.5v387q0 13 -9.5 22.5t-22.5 9.5zM796 291l75 -228h-718l76 228h-68l-97 -292h896l-96 292h-68z
" />
    <glyph glyph-name="rds" unicode="&#xe6b7;" 
d="M661 417h-117v117q0 13 -9.5 22.5t-22.5 9.5t-22.5 -9.5t-9.5 -22.5v-117h-117q-14 0 -23 -9.5t-9 -23t9 -22.5t23 -9h117v-118q0 -13 9.5 -22.5t22.5 -9.5t22.5 9.5t9.5 22.5v118h117q14 0 23 9t9 22.5t-9 23t-23 9.5zM512 -33q-85 0 -163 32q-75 32 -133 90t-90 133
q-33 78 -33 163q0 78 28 150.5t81 130.5q52 57 121 92t146 42q13 2 23.5 -6.5t11.5 -21.5t-7 -23.5t-22 -11.5q-134 -14 -226 -115t-92 -238q0 -146 104 -250t250 -104q139 0 240 94q101 93 113 229q1 13 11.5 21.5t23.5 7.5t21.5 -11t7.5 -24q-7 -77 -41.5 -147t-91.5 -123
q-58 -53 -131.5 -81.5t-151.5 -28.5zM887 442q-11 0 -19.5 7t-11.5 17q-22 95 -91 165.5t-163 95.5q-13 3 -19.5 14.5t-3 24.5t14.5 19.5t24 3.5q112 -30 193 -112.5t107 -195.5q3 -13 -4 -24t-20 -14q-3 -1 -7 -1z" />
    <glyph glyph-name="parameter-list" unicode="&#xe6b8;" 
d="M64 639.5q0 -26.5 18.5 -45t45 -18.5t45 18.5t18.5 44.5v0q0 27 -18.5 45.5t-45 18.5t-45 -18.5t-18.5 -45zM928 607h-595q-13 0 -22.5 9.5t-9.5 22.5t9.5 22.5t22.5 9.5h595q13 0 22.5 -9.5t9.5 -22.5t-9.5 -22.5t-22.5 -9.5zM64 384.5q0 -26.5 18.5 -45t45 -18.5
t45 18.5t18.5 45.5v0q0 26 -18.5 44.5t-45 18.5t-45 -18.5t-18.5 -45zM928 353h-595q-13 0 -22.5 9t-9.5 22.5t9.5 23t22.5 9.5h595q13 0 22.5 -9.5t9.5 -23t-9.5 -22.5t-22.5 -9zM64 128.5q0 -26.5 18.5 -45t45 -18.5t45 18.5t18.5 45.5v0q0 26 -18.5 44.5t-45 18.5
t-45 -18.5t-18.5 -45zM928 98h-595q-13 0 -22.5 9.5t-9.5 22.5t9.5 22.5t22.5 9.5h595q13 0 22.5 -9.5t9.5 -22.5t-9.5 -22.5t-22.5 -9.5z" />
    <glyph glyph-name="operation-overview" unicode="&#xe6b9;" 
d="M739 530l-212 -218q-7 2 -15 2q-26 0 -45 -18.5t-19 -45t19 -45t45 -18.5t45 18.5t19 44.5q0 15 -7 28zM906 486q-32 77 -92 137q-58 59 -136 91q-79 34 -166.5 34t-166.5 -34q-77 -32 -136 -91q-60 -59 -92 -137q-34 -79 -34 -166q0 -81 29 -155.5t83 -133.5
q9 -10 23 -11t24 8.5t10.5 23t-8.5 23.5q-16 18 -29 36l31 19q11 7 4 18q0 1 -4 7q-3 4 -4 6q-6 11 -18 4l-31 -19q-37 67 -43 145l37 1q5 0 9 4t4 9q-1 5 -1 8v7v0q0 5 -4 9t-9 4l-37 -1q3 77 36 146l32 -18q12 -6 18 5l4 7q3 5 3 6q7 12 -5 18l-32 18q22 34 50 62
q26 25 55 45l19 -31q7 -12 18 -4q4 2 6 3.5t7 3.5q11 7 5 18l-19 31q68 35 145 40v-37q0 -5 4 -9t9 -4q3 1 8 1t7 -1q5 0 9 4t4 9v37q78 -5 146 -40l-18 -31q-7 -12 5 -18q6 -4 13 -8q11 -7 18 5l18 31q29 -20 54 -45q28 -29 50 -63l-31 -17q-12 -6 -5 -18q4 -6 7 -13
q6 -11 18 -5l31 17q33 -68 36 -145l-36 1q-5 0 -9 -4t-4 -9v0q0 -8 -1 -15q0 -5 4 -9t9 -4l36 -1q-6 -77 -43 -144l-30 19q-11 7 -18 -5l-8 -12q-7 -11 4 -18l30 -19q-14 -20 -29 -37q-9 -10 -8.5 -23.5t10.5 -22.5t23 -9q14 0 24 11q54 59 83 133.5t29 155.5q0 87 -34 166z
" />
    <glyph glyph-name="host" unicode="&#xe6ba;" 
d="M655 187h-292q-59 0 -100.5 41.5t-41.5 100.5q0 50 32 89q23 29 56 42q10 66 58 112q57 56 137 56q79 0 136 -55q47 -45 58 -108q44 -14 71.5 -51.5t27.5 -84.5q0 -59 -41.5 -100.5t-100.5 -41.5zM504 564q-54 0 -92.5 -37.5t-40.5 -91.5q-1 -10 -8 -18.5t-17 -11.5
q-27 -5 -44 -27q-17 -21 -17 -49q0 -32 23 -55t55 -23h292q33 0 55.5 23t22.5 55q0 30 -19.5 52t-48.5 26q-11 1 -19 9.5t-9 20.5q-2 53 -41 90t-92 37zM720 735q58 0 99 -40.5t41 -98.5v-423q0 -57 -41 -98t-99 -41h-422q-58 0 -99 41t-41 98v423q0 58 41 98.5t99 40.5h422
v0zM720 799h-422q-84 0 -144 -59.5t-60 -143.5v-423q0 -84 60 -143.5t144 -59.5h422q85 0 144.5 59.5t59.5 143.5v423q0 84 -59.5 143.5t-144.5 59.5z" />
    <glyph glyph-name="customer-center" unicode="&#xe6bb;" 
d="M510 756q53 0 90 -37.5t37 -90t-37 -89.5t-90 -37t-90 37t-37 89.5t37 90t90 37.5zM510 823q-80 0 -137 -57t-57 -137.5t57 -137.5t137 -57t137 57t57 137.5t-57 137.5t-137 57zM928 192h-401q-13 0 -22.5 9.5t-9.5 22.5t9.5 22.5t22.5 9.5h401q13 0 22.5 -9.5t9.5 -22.5
t-9.5 -22.5t-22.5 -9.5zM928 64h-401q-13 0 -22.5 9.5t-9.5 22.5t9.5 22.5t22.5 9.5h401q13 0 22.5 -9.5t9.5 -22.5t-9.5 -22.5t-22.5 -9.5zM928 -64h-401q-13 0 -22.5 9.5t-9.5 23t9.5 22.5t22.5 9h401q13 0 22.5 -9t9.5 -22.5t-9.5 -23t-22.5 -9.5zM737 336q17 -17 31 -36
h76q-25 44 -62 81q-52 53 -121 82q-71 31 -149 31t-149 -31q-69 -29 -122 -81.5t-82 -121.5q-30 -71 -30 -149v-175h64v175q0 132 93.5 225t225.5 93t225 -93z" />
    <glyph glyph-name="shouyeguanli" unicode="&#xe6bc;" 
d="M770 19h-185q-13 0 -22.5 9.5t-9.5 22.5v129h-83v-129q0 -13 -9.5 -22.5t-22.5 -9.5h-186q-14 0 -23 9.5t-9 22.5v320h-123q-23 0 -30 21.5t11 35.5l414 314q20 15 39 0l415 -314q18 -14 10.5 -35.5t-30.5 -21.5h-124v-320q0 -13 -9 -22.5t-23 -9.5zM617 83h121v320
q0 13 9.5 22.5t22.5 9.5h61l-319 242l-319 -242h59q13 0 22.5 -9.5t9.5 -22.5v-320h122v129q0 13 9 22.5t23 9.5h147q14 0 23 -9.5t9 -22.5v-129z" />
    <glyph glyph-name="resource-management" unicode="&#xe6bd;" 
d="M928 255h-318q-13 0 -22.5 9.5t-9.5 22.5t9.5 22.5t22.5 9.5h318q13 0 22.5 -9.5t9.5 -22.5t-9.5 -22.5t-22.5 -9.5zM928 127h-318q-13 0 -22.5 9.5t-9.5 22.5t9.5 22.5t22.5 9.5h318q13 0 22.5 -9.5t9.5 -22.5t-9.5 -22.5t-22.5 -9.5zM928 0h-318q-13 0 -22.5 9
t-9.5 22.5t9.5 23t22.5 9.5h318q13 0 22.5 -9.5t9.5 -23t-9.5 -22.5t-22.5 -9zM512 47l-32 -19v338l288 168v-150h64v210q0 16 -14 24l-356 209q-14 8 -28 0l-356 -209q-14 -8 -14 -24v-418q0 -16 14 -24l356 -209q14 -9 28 0l50 29v75v0zM416 28l-288 169v337l288 -168
v-338zM448 422l-289 168l289 170l289 -170z" />
    <glyph glyph-name="customer-management" unicode="&#xe6be;" 
d="M512 682q42 0 72 -30t30 -72t-30 -71.5t-72 -29.5t-72 29.5t-30 71.5t30 72t72 30zM512 746q-69 0 -117.5 -48.5t-48.5 -117t48.5 -117t117.5 -48.5t117.5 48.5t48.5 117t-48.5 117t-117.5 48.5zM511.5 351q62.5 0 119.5 -25q55 -23 97.5 -65.5t66.5 -97.5q11 -27 17 -56
h-601q6 29 17 56q24 55 66.5 97.5t97.5 65.5q57 25 119.5 25zM511.5 415q-100.5 0 -186 -50t-135.5 -135.5t-50 -186.5h743q0 101 -50 186.5t-135.5 135.5t-186 50zM639 418q26 6 54 6q90 0 155 -64q45 -45 59 -107h-60q14 -23 25 -48h88q0 88 -51.5 157.5t-132.5 96.5
q36 35 36 85q0 49 -35 84t-84 35h-11q11 -23 16 -48q28 -2 47 -22.5t19 -48.5q0 -30 -21 -50.5t-50 -20.5q-11 0 -22 3q-21 -31 -52 -52zM177 253h-60q14 62 59 107q64 64 155 64q27 0 53 -6q10 3 21 6q-31 21 -52 53q-11 -4 -22 -4q-29 0 -50 21t-21 50q0 28 19 48.5
t47 22.5q4 25 16 48h-11q-49 0 -84 -34.5t-35 -84.5t36 -85q-81 -27 -132.5 -96.5t-51.5 -157.5h87q11 24 26 48z" />
    <glyph glyph-name="workOrder-management" unicode="&#xe6c0;" 
d="M570 188l383 496q8 10 6.5 23.5t-12 21.5t-23.5 6t-22 -12l-360 -467l-200 202q-9 10 -22 10h-1q-13 0 -22.5 -9t-9.5 -22.5t10 -22.5l225 -229q9 -9 23 -9h2q14 1 23 12zM831 447v-308q0 -30 -21.5 -52t-52.5 -22h-491q-31 0 -52.5 22t-21.5 52v491q0 31 21.5 52.5
t52.5 21.5h491q31 0 53 -22l39 50q-39 36 -92 36h-491q-57 0 -97.5 -40.5t-40.5 -97.5v-491q0 -57 40.5 -97.5t97.5 -40.5h491q57 0 97.5 40.5t40.5 97.5v391z" />
    <glyph glyph-name="store" unicode="&#xe6c2;" 
d="M350 704q27 0 46.5 -19.5t19.5 -47.5v-90q0 -27 -19.5 -46.5t-46.5 -19.5h-91q-27 0 -46.5 19.5t-19.5 46.5v90q0 28 19.5 47.5t46.5 19.5h91zM350 768h-91q-54 0 -92 -38.5t-38 -92.5v-90q0 -54 38 -92t92 -38h91q53 0 91.5 38t38.5 92v90q0 54 -38.5 92.5t-91.5 38.5z
M350 287q27 0 46.5 -19t19.5 -47v-90q0 -28 -19.5 -47t-46.5 -19h-91q-27 0 -46.5 19t-19.5 47v90q0 28 19.5 47t46.5 19h91zM350 351h-91q-54 0 -92 -38t-38 -92v-90q0 -54 38 -92t92 -38h91q53 0 91.5 38t38.5 92v90q0 54 -38.5 92t-91.5 38zM766 704q27 0 46.5 -19.5
t19.5 -47.5v-90q0 -27 -19.5 -46.5t-46.5 -19.5h-91q-27 0 -46.5 19.5t-19.5 46.5v90q0 28 19.5 47.5t46.5 19.5h91zM766 768h-91q-54 0 -92 -38.5t-38 -92.5v-90q0 -54 38 -92t92 -38h91q53 0 91.5 38t38.5 92v90q0 54 -38.5 92.5t-91.5 38.5zM868 272h-260
q-13 0 -22.5 9.5t-9.5 23t9.5 22.5t22.5 9h260q13 0 22.5 -9t9.5 -22.5t-9.5 -23t-22.5 -9.5zM868 143h-260q-13 0 -22.5 9.5t-9.5 22.5t9.5 22.5t22.5 9.5h260q13 0 22.5 -9.5t9.5 -22.5t-9.5 -22.5t-22.5 -9.5zM868 16h-260q-13 0 -22.5 9t-9.5 22.5t9.5 23t22.5 9.5h260
q13 0 22.5 -9.5t9.5 -23t-9.5 -22.5t-22.5 -9z" />
    <glyph glyph-name="cloud-resource-operation" unicode="&#xe6c3;" 
d="M561 572v0v0q-49 0 -90 -26t-61 -69l-1 -1q-50 0 -84.5 -35t-34.5 -84.5t34.5 -84.5t84.5 -35h152q69 0 118 49.5t49 118.5t-49 118t-118 49zM409 300q-24 0 -40.5 16.5t-16.5 40t16.5 40t40.5 16.5q8 0 15 -2l2 -1q25 -8 35 -32q7 -12 25 -12q13 0 22.5 9.5t9.5 22.5
q0 8 -4 15q-20 38 -60 53q23 15 36.5 22.5t33 14t37.5 6.5q43 0 74 -30.5t31 -74t-31 -74t-74 -30.5h-152v0zM903 471l31 7q13 3 13 15q0 2 -1 4q-30 115 -113 200t-197 118h-5q-12 0 -15 -11l-8 -32q-1 -2 -1 -4q0 -12 12 -15q97 -28 168 -100.5t97 -170.5q3 -12 15 -12
q2 0 4 1v0zM494 0q-147 7 -252.5 112.5t-112.5 253.5q-5 106 43.5 197.5t135.5 146t192 58.5q5 0 8.5 3.5t3.5 9.5v38v0q0 5 -3.5 9t-8.5 4v0q-91 -3 -172.5 -40.5t-140 -98.5t-92 -145t-31.5 -175q3 -117 62 -216.5t159 -158.5t217 -62q121 -3 225 53.5t166 156.5t67 220v0
q0 8 -5 13t-12 5h-29v0q-7 0 -12 -5t-6 -12q-4 -103 -59 -189.5t-146.5 -134.5t-196.5 -43v0z" />
    <glyph glyph-name="dataService" unicode="&#xe6c4;" 
d="M332 449h-23q-8 0 -14 -6t-6 -15v-279q0 -8 6 -14t14 -6h23q9 0 15 6t6 14v279q0 9 -6 15t-15 6zM462 577h-23q-9 0 -15 -6t-6 -15v-407q0 -8 6 -14t15 -6h23q8 0 14 6t6 14v407q0 9 -6 15t-14 6zM591 705h-23q-8 0 -14 -6t-6 -15v-535q0 -8 6 -14t14 -6h23q8 0 14 6
t6 14v535q0 9 -6 15t-14 6zM718 833h-23q-9 0 -15 -6t-6 -15v-663q0 -8 6 -14t15 -6h23q8 0 14 6t6 14v663q0 9 -6 15t-14 6zM864 225v-38q0 -8 6 -13q26 -23 26 -40q0 -18 -27.5 -40.5t-64.5 -38.5q-120 -52 -292 -52t-292 52q-44 20 -68 42t-24 37q0 18 26 40q6 5 6 13v38
q0 11 -9.5 15.5t-17.5 -1.5q-69 -48 -69 -105q0 -53 60 -98.5t163 -72t225 -26.5t225 26.5t163 72t60 98.5q0 57 -68 106q-9 6 -18.5 1t-9.5 -16z" />
    <glyph glyph-name="bigdata-product" unicode="&#xe6c5;" 
d="M454 -54q-20 0 -37 10l-316 182q-37 22 -37 64v365q0 43 37 64l316 183q17 10 37 10t37 -10l316 -183q37 -21 37 -64q0 -13 -9.5 -22.5t-22.5 -9.5t-22.5 9.5t-9.5 22.5q0 6 -5 9l-316 182q-5 3 -10 0l-316 -182q-5 -3 -5 -9v-365q0 -6 5 -8l316 -183q5 -3 10 0l316 183
q5 2 5 8q0 13 9.5 22.5t22.5 9.5t22.5 -9.5t9.5 -22.5q0 -42 -37 -64l-316 -182q-17 -10 -37 -10zM945.5 520.5q-15.5 18.5 -39.5 20t-42 -14.5q-27 -23 -19 -57l-82 -83q-18 6 -36 2l-77 77q7 18 7 37q0 38 -27 65.5t-65.5 27.5t-65.5 -27.5t-27 -65.5q0 -22 9 -42l-94 -94
q-25 13 -54 13q-47 0 -79.5 -32.5t-32.5 -79.5t32.5 -79.5t79.5 -32.5t79.5 32.5t32.5 79.5q0 29 -13 54l96 95q17 -7 36 -7q22 0 42 10l75 -76q-10 -34 13 -60q19 -23 49 -23q24 0 42 16q20 17 22 44q1 9 -1 19l86 86q27 -4 48 13q18 16 19.5 40t-14 42.5zM333 219
q-20 0 -34 14t-14 34t14 34.5t34 14.5t34 -14.5t14 -34.5t-14 -34t-34 -14zM564 473q-12 0 -20.5 8.5t-8.5 20.5t8.5 20.5t20.5 8.5t20.5 -8.5t8.5 -20.5t-8.5 -20.5t-20.5 -8.5z" />
    <glyph glyph-name="bigdata-operation-platform" unicode="&#xe6c6;" 
d="M317 132q-13 0 -22.5 9.5t-9.5 22.5v317q0 13 9.5 22.5t22.5 9.5t22.5 -9.5t9.5 -22.5v-317q0 -13 -9.5 -22.5t-22.5 -9.5zM447.5 132q-13.5 0 -23 9.5t-9.5 22.5v256q0 13 9.5 22.5t23 9.5t22.5 -9.5t9 -22.5v-256q0 -13 -9 -22.5t-22.5 -9.5zM575.5 132.5
q-13.5 -0.5 -22.5 9t-9 22.5v158q0 13 9 22.5t22.5 9.5t23 -9.5t9.5 -22.5v-157q0 -14 -9.5 -23t-23 -9.5zM706 132.5q-13 -0.5 -22.5 9t-9.5 22.5v288q0 13 9.5 22.5t22.5 9.5t22.5 -9.5t9.5 -22.5v-287q0 -14 -9.5 -23t-22.5 -9.5zM574 413q-8 0 -14 5l-242 189l-106 -96
q-7 -7 -17 -6.5t-16.5 8t-6 17.5t7.5 16l121 110q15 14 31 2l239 -188l235 289q6 7 16 8t17.5 -5t8.5 -16t-5 -18l-250 -307q-7 -8 -19 -8zM818 255l56 -190h-724l56 190h-66l-77 -254h897l-76 254h-66z" />
    <glyph glyph-name="adb-operation-platform" unicode="&#xe6c7;" 
d="M818 255l56 -190h-724l56 190h-66l-77 -254h897l-76 254h-66zM852 470q-9 12 -22 19q24 22 24 55q0 39 -29 60q-28 21 -75 21h-108v-76q-9 23 -26 40q-38 36 -111 36h-98v-220l-90 220h-55l-112 -293h63l30 82h96l32 -82h134q73 0 111 37q17 17 26 41v-78h113q53 0 82 23
q31 23 31 67q0 27 -16 48zM262 466l28 79l30 -79h-58zM574 410q-17 -22 -70 -22h-37v181h37q53 0 71 -22q18 -23 18 -67q0 -46 -19 -70zM702 569h44q30 0 41 -7q8 -7 8 -21q0 -15 -8 -21q-11 -8 -37 -8h-48v57zM755 388h-53v68h48q35 0 47 -8q10 -8 10 -26
q0 -15 -10.5 -24.5t-41.5 -9.5zM189 736h643v-64h-643v64z" />
    <glyph glyph-name="login-policy" unicode="&#xe6c8;" 
d="M512 751l159 -159q1 -1 1 -3q0 -4 -4 -4h-92v-247v0q0 -10 -10 -10h-109q-9 0 -9 10v0v247h-92q-4 0 -4 4q0 2 1 3zM249 521h135v-210v0q0 -19 13.5 -33t33.5 -14h162q19 0 33 14t14 33v0v210h134q16 0 22 15t-5 26l-262 263q-7 7 -17 7t-17 -7l-263 -263q-11 -11 -5 -26
t22 -15zM672 335v-8v0q0 -26 24 -35q8 -3 16 -7q19 -9 33 -18.5t18.5 -15.5t4.5 -9.5t-4.5 -9t-18.5 -15.5t-33 -19q-81 -37 -200 -37t-200 37q-20 9 -33.5 19t-18 15.5t-4.5 9t4.5 9.5t18 15.5t33.5 18.5q7 4 16 7q24 9 24 35v0v8v0q0 10 -7 17t-17 7q-4 0 -7 -1
q-60 -21 -94.5 -51t-34.5 -65q0 -40 42.5 -73t116.5 -52.5t161 -19.5t160.5 19.5t116.5 52.5t43 73q0 35 -34.5 65t-94.5 51q-4 1 -8 1q-9 0 -16 -7t-7 -17v0zM863 225q-1 14 10.5 20t22.5 -2q64 -48 64 -104q0 -55 -60 -101.5t-163.5 -74t-225 -27.5t-224.5 27.5t-163 74
t-60 101.5t62 103q11 8 23 1.5t11 -19.5l-2 -21q-1 -19 -15 -32q-15 -17 -15 -32q0 -19 25.5 -42t67.5 -43q119 -53 291 -53t290 53q43 20 68.5 43t25.5 42q0 16 -18 35q-14 14 -15 34v17z" />
    <glyph glyph-name="access-control-ram" unicode="&#xe6c9;" 
d="M858 701v-471h-692v471h692zM862 765h-700q-25 0 -42.5 -18t-17.5 -43v-477q0 -26 17.5 -43.5t42.5 -17.5h700q25 0 42.5 17.5t17.5 43.5v477q0 25 -17.5 43t-42.5 18zM927 34h-831q-14 0 -23 9.5t-9 22.5t9 22.5t23 9.5h831q14 0 23 -9.5t9 -22.5t-9 -22.5t-23 -9.5z
M778 559h-34l-46 -140l-45 140h-58v-189l-78 189h-43l-73 -189l-14 38q-7 19 -18 30q10 5 17 14q14 16 14 41q0 21 -10 38q-12 18 -30 24q-16 5 -41 5h-99v-220h49v84h37q11 0 20 -6q9 -7 13 -18l21 -60h81l22 60h67l23 -60h89v111l37 -112h39l38 112v-112h47v220h-25z
M345 475q-8 -5 -29 -5h-47v46h51q32 0 32 -23q0 -13 -7 -18zM478 442l18 50l18 -50h-36z" />
    <glyph glyph-name="authentication" unicode="&#xe6ca;" 
d="M512 733q71 0 136 -28q62 -26 111 -74q48 -49 74 -111q28 -65 28 -136t-28 -136q-26 -62 -74.5 -110.5t-110.5 -74.5q-65 -28 -136 -28t-136 28q-62 26 -110.5 74.5t-74.5 110.5q-28 65 -28 136t28 136q26 62 74 111q49 48 111 74q65 28 136 28zM512 797
q-112 0 -207 -55.5t-150.5 -150.5t-55.5 -207t55.5 -207t150.5 -150.5t207 -55.5t207 55.5t150.5 150.5t55.5 207t-55.5 207t-150.5 150.5t-207 55.5zM676 564l-164 -311l-164 311h-79l243 -460l243 460h-79z" />
    <glyph glyph-name="remitting-bill" unicode="&#xe6cb;" 
d="M697 640q7 0 7 -6v-628q0 -6 -7 -6h-499q-6 0 -6 6v627q0 7 6 7h499zM697 704h-499q-29 0 -49.5 -20.5t-20.5 -50.5v-627q0 -29 20.5 -49.5t49.5 -20.5h499q29 0 50 20.5t21 49.5v627q0 30 -21 50.5t-50 20.5zM878 64h-29q-7 0 -12 5t-5 13v636q0 21 -15 35.5t-36 14.5
h-508q-7 0 -12 5t-5 13v28q0 8 5 13t12 5h533q37 0 63.5 -26.5t26.5 -63.5v-660q0 -8 -5.5 -13t-12.5 -5zM622 557h-78l-99 -174l-97 174h-80l129 -228h-101v-60h115v-24h-115v-61h115v-107h68v107h116v61h-116v24h116v60h-101z" />
    <glyph glyph-name="cost" unicode="&#xe6cc;" 
d="M689 548h-79l-99 -175l-97 175h-80l129 -228h-101v-61h115v-23h-115v-61h115v-107h68v107h117v61h-117v23h117v61h-102zM894 312l-100 303h1v64l17 52q12 37 -11 69t-63 32h-453q-39 0 -62 -31t-12 -68l16 -54v-64l-14 -46l-84 -257q-17 -57 -14 -110.5t27.5 -101.5
t61 -84.5t88.5 -58t109 -21.5h221q57 0 109 21.5t88.5 58t61 84.5t27.5 102t-14 110zM271 745q-3 9 2.5 16t14.5 7h447q9 0 14.5 -7.5t3.5 -16.5l-19 -65h-446zM842 186q-9 -51 -40 -93.5t-76 -66.5q-48 -26 -104 -26h-221q-56 0 -104 26q-46 24 -76 66q-31 43 -40 94
q-9 53 9 106l104 323h433l106 -323q18 -53 9 -106z" />
    <glyph glyph-name="message-center" unicode="&#xe6ce;" 
d="M257 449q0 -26 18.5 -44.5t44.5 -18.5t44.5 18.5t18.5 44.5t-18.5 44.5t-44.5 18.5t-44.5 -18.5t-18.5 -44.5zM449 449q0 -26 18.5 -44.5t44.5 -18.5t44.5 18.5t18.5 44.5t-18.5 44.5t-44.5 18.5t-44.5 -18.5t-18.5 -44.5zM642 449q0 -26 18.5 -44.5t44.5 -18.5
t44.5 18.5t18.5 44.5t-18.5 44.5t-44.5 18.5t-44.5 -18.5t-18.5 -44.5zM852 703q17 0 29 -12t12 -29v-410q0 -17 -12 -29t-29 -12h-361l-17 -13l-144 -108q-5 -4 -9 1q-1 2 -1 4v116h-151q-17 0 -29 12t-12 29v410q0 17 12 29t29 12h683zM852 767h-683q-44 0 -74.5 -30.5
t-30.5 -74.5v-410q0 -44 30.5 -74.5t74.5 -30.5h87v-144q0 -15 13.5 -21.5t25.5 2.5l217 163h340q44 0 74.5 30.5t30.5 74.5v410q0 44 -30.5 74.5t-74.5 30.5z" />
    <glyph glyph-name="cloud-account" unicode="&#xe6d1;" 
d="M512 761q77 0 146 -30q68 -28 120 -80t80 -120q30 -69 30 -146t-30 -146q-28 -68 -80 -120t-120 -80q-69 -30 -146 -30t-146 30q-68 28 -120 80t-80 120q-30 69 -30 146t30 146q28 68 80 120t120 80q69 30 146 30zM512 822q-89 0 -170 -34.5t-139.5 -93t-93 -139.5
t-34.5 -170t34.5 -170t93 -139.5t139.5 -93t170 -34.5t170 34.5t139.5 93t93 139.5t34.5 170t-34.5 170t-93 139.5t-139.5 93t-170 34.5zM675 223h-326q-51 0 -87.5 36t-36.5 88q0 44 29 78.5t72 42.5q15 56 59 94q55 49 128.5 49t128.5 -49q43 -38 58 -94q43 -9 71 -43
t28 -79q0 -51 -36.5 -87t-87.5 -36zM349 406q-25 0 -42.5 -17.5t-17.5 -42t17.5 -42t42.5 -17.5h326q25 0 42.5 17.5t17.5 42t-17.5 42t-42.5 17.5h-29l-4 28q-6 48 -43 80.5t-86 32.5t-85.5 -32.5t-43.5 -80.5l-4 -29l-29 1h-2z" />
    <glyph glyph-name="revenue-expenditure" unicode="&#xe6d2;" 
d="M712 627h-80l-100 -176l-98 176h-80l129 -231h-101v-61h116v-24h-116v-61h116v-109h69v109h118v61h-118v24h118v61h-103zM275 544h-152q-13 0 -22.5 9.5t-9.5 22.5t9.5 22.5t22.5 9.5h152q13 0 22.5 -9.5t9.5 -22.5t-9.5 -22.5t-22.5 -9.5zM275 356h-152q-13 0 -22.5 9.5
t-9.5 22.5t9.5 22.5t22.5 9.5h152q13 0 22.5 -9.5t9.5 -22.5t-9.5 -22.5t-22.5 -9.5zM275 168h-152q-13 0 -22.5 9.5t-9.5 22.5t9.5 22.5t22.5 9.5h152q13 0 22.5 -9.5t9.5 -22.5t-9.5 -22.5t-22.5 -9.5zM164 520h64v-76h-64v76zM164 332h64v-76h-64v76zM784 832h-544
q-31 0 -53.5 -22.5t-22.5 -54.5v-123h64v123q0 6 3.5 9.5t8.5 3.5h544q5 0 8.5 -3.5t3.5 -9.5v-734q0 -5 -3.5 -9t-8.5 -4h-544q-5 0 -8.5 4t-3.5 9v123h-64v-123q0 -32 22.5 -54.5t53.5 -22.5h544q31 0 53.5 22.5t22.5 54.5v734q0 32 -22.5 54.5t-53.5 22.5z" />
    <glyph glyph-name="order" unicode="&#xe6d3;" 
d="M480 574h-194q-13 0 -22 9t-9 22.5t9 22.5t22 9h194q13 0 22.5 -9t9.5 -22.5t-9.5 -22.5t-22.5 -9zM544 447h-258q-13 0 -22 9.5t-9 22.5t9 22t22 9h258q13 0 22 -9t9 -22t-9 -22.5t-22 -9.5zM575 94q-13 0 -22 9l-192 190q-10 9 -10 22.5t9.5 23t22.5 9.5t23 -9
l164 -163l303 464q7 11 20 14t24.5 -4.5t14 -20.5t-4.5 -24l-325 -496q-9 -13 -24 -15h-3zM737 257v-226h-544v706h544v-246l64 98v168q0 18 -12.5 31t-30.5 13h-586q-18 0 -30.5 -13t-12.5 -31v-746q0 -17 27 -30.5t48 -13.5h554q18 0 30.5 13t12.5 31v344z" />
    <glyph glyph-name="consumption-overview" unicode="&#xe6d4;" 
d="M544 574h-258q-13 0 -22 9t-9 22.5t9 22.5t22 9h258q13 0 22 -9t9 -22.5t-9 -22.5t-22 -9zM480 447h-194q-13 0 -22 9.5t-9 22.5t9 22t22 9h194q14 0 23 -9t9 -22t-9 -22.5t-23 -9.5zM480 321h-194q-13 0 -22 9t-9 22t9 22.5t22 9.5h194q14 0 23 -9.5t9 -22.5t-9 -22
t-23 -9zM902 421h-79l-100 -176l-98 176h-80l129 -230h-102v-61h117v-24h-117v-61h117v-109h69v109h117v61h-117v24h117v61h-103zM192 737h545v-246q0 -13 9.5 -22.5t23 -9.5t22.5 9.5t9 22.5v266q0 18 -12.5 31t-30.5 13h-586q-18 0 -30.5 -13t-12.5 -31v-746
q0 -18 12.5 -31t30.5 -13h333q14 0 23 9.5t9 22.5t-9 22.5t-23 9.5h-312z" />
    <glyph glyph-name="process-definition" unicode="&#xe6d5;" 
d="M928 321h-384q-13 0 -22.5 9.5t-9.5 22.5t9.5 22.5t22.5 9.5h384q13 0 22.5 -9.5t9.5 -22.5t-9.5 -22.5t-22.5 -9.5zM928 161h-384q-13 0 -22.5 9.5t-9.5 23t9.5 22.5t22.5 9h384q13 0 22.5 -9t9.5 -22.5t-9.5 -23t-22.5 -9.5zM928 2h-384q-13 0 -22.5 9.5t-9.5 22.5
t9.5 22.5t22.5 9.5h384q13 0 22.5 -9.5t9.5 -22.5t-9.5 -22.5t-22.5 -9.5zM827 563q-29 68 -81.5 120.5t-120.5 81.5q-71 29 -148 29t-147 -29q-69 -29 -121.5 -81.5t-80.5 -120.5q-30 -71 -30 -148q0 -68 23 -131q23 -62 64 -112q46 -54 109 -89l-132 7q-13 1 -23 -7.5
t-10.5 -22t8.5 -23.5t22 -10l256 -15h0.5h1.5q17 0 27 15q10 16 1 32l-122 226q-6 12 -19 16t-24.5 -2.5t-15.5 -19t3 -24.5l64 -119q-56 29 -96 78q-35 41 -54 92q-19 53 -19 109q0 131 92.5 223.5t222.5 92.5q131 0 223 -92.5t92 -223.5h64q1 77 -29 148z" />
    <glyph glyph-name="cloud-resources" unicode="&#xe6d6;" 
d="M928 321h-384q-13 0 -22.5 9.5t-9.5 22.5t9.5 22.5t22.5 9.5h384q13 0 22.5 -9.5t9.5 -22.5t-9.5 -22.5t-22.5 -9.5zM928 193h-384q-13 0 -22.5 9.5t-9.5 23t9.5 22.5t22.5 9h384q13 0 22.5 -9t9.5 -22.5t-9.5 -23t-22.5 -9.5zM928 66h-384q-13 0 -22.5 9.5t-9.5 22.5
t9.5 22.5t22.5 9.5h384q13 0 22.5 -9.5t9.5 -22.5t-9.5 -22.5t-22.5 -9.5zM451 98q0 13 -9.5 22.5t-22.5 9.5h-141q-62 0 -106 44t-44 106t44 106t106 44q9 0 18 -1q4 -1 8 -1q21 0 38 13t23 34q12 42 37 78q24 36 59 62q35 27 76 41q42 15 88 15q55 0 105 -21
q49 -21 86.5 -58.5t57.5 -85.5q8 -18 12 -35q3 -10 11.5 -16.5t19.5 -6.5q16 0 25.5 12.5t5.5 27.5q-29 108 -118.5 177.5t-204.5 69.5q-113 0 -202 -68.5t-120 -174.5q-12 2 -25 2q-89 0 -151.5 -63t-62.5 -151t63.5 -151t152.5 -63h139q13 0 22.5 9.5t9.5 22.5z" />
    <glyph glyph-name="proprietary-cloud" unicode="&#xe6d7;" 
d="M418 129q0 13 -9.5 22.5t-22.5 9.5h-108q-62 0 -106 44t-44 106t44 106t106 44q9 0 18 -1q4 -1 8 -1q21 0 38 13t23 34q12 42 37 78t59 62q35 27 76 41q42 15 88 15q56 0 106 -21q48 -21 85.5 -58.5t58.5 -85.5q7 -18 11 -35q3 -10 11.5 -16.5t19.5 -6.5q16 0 25.5 12.5
t5.5 27.5q-29 108 -118.5 177.5t-204.5 69.5q-113 0 -202 -68.5t-119 -174.5q-13 1 -26 1q-89 0 -151.5 -62.5t-62.5 -150.5t63.5 -151t152.5 -63h106q13 0 22.5 9.5t9.5 22.5zM705 442q79 0 135 -56t56 -135t-56 -135t-135 -56t-135 56t-56 135t56 135t135 56zM704.5 506
q-105.5 0 -180 -75t-74.5 -180.5t74.5 -180t180 -74.5t180.5 74.5t75 180t-75 180.5t-180.5 75zM694 122v0q-14 0 -23 10l-91 93q-9 9 -9 22.5t9.5 22.5t23 9t22.5 -10l63 -64l90 132q8 11 21 13.5t24 -5t13.5 -20.5t-5.5 -24l-112 -164q-8 -13 -23 -14q-1 -1 -3 -1z" />
    <glyph glyph-name="OSS" unicode="&#xe6d8;" 
d="M602 676q121 0 206.5 -85.5t85.5 -206.5t-85.5 -206.5t-206.5 -85.5q-57 0 -98 18q42 47 51 135l52 -4q3 -1 4 -1q9 0 13 6.5t0 15.5l-63 154q-5 12 -14 12q-7 0 -13 -9l-111 -137q-7 -9 -4 -16t14 -9l53 -5q-7 -65 -48 -106q-54 -53 -128 -53q-75 0 -128 52.5t-53 127.5
t53 128t128 53h8q24 96 103 159t181 63zM602 740q-62 0 -120 -20q-55 -20 -102 -57q-46 -37 -77 -86q-19 -30 -32 -62q-29 -5 -57 -16q-43 -19 -77 -53t-53 -77q-19 -46 -19 -95.5t19 -95.5q19 -44 53 -78q33 -34 78 -52q45 -19 95 -19q49 0 95 19q19 8 37 19l36 -16
q54 -23 124 -23q72 0 138 28q64 27 113.5 76t76.5 113q28 66 28 138.5t-28 139.5q-27 64 -76.5 113t-113.5 76q-66 28 -138 28zM529 312l3 4l2 -5z" />
    <glyph glyph-name="monitoring-management" unicode="&#xe6da;" 
d="M928 768h-833q-13 0 -22 -9t-9 -23v-547q0 -13 9 -22.5t22 -9.5h385v-93h-142q-8 0 -13.5 -5.5t-5.5 -12.5v-27q0 -8 5.5 -13.5t13.5 -5.5h346q8 0 13.5 5.5t5.5 13.5v27q0 7 -5.5 12.5t-13.5 5.5h-141v93h385q13 0 22.5 9.5t9.5 22.5v547q0 14 -9.5 23t-22.5 9zM896 221
h-769v484h769v-484v0zM288 573h64v-289h-64v289zM416 649h64v-365h-64v365zM544 489h64v-205h-64v205zM670 544h64v-260h-64v260z" />
    <glyph glyph-name="info-circle" unicode="&#xe6e0;" 
d="M512 768q78 0 149 -30q69 -29 122 -82q54 -54 83 -122q30 -72 30 -150t-30 -149q-30 -69 -83 -122q-53 -54 -122 -83q-71 -30 -149 -30t-150 30q-68 30 -122 83q-53 53 -82 122q-30 71 -30 149t30 150q29 68 82 122q54 53 122 82q72 30 150 30zM512 832q-91 0 -174 -35.5
t-143 -95.5t-95.5 -143t-35.5 -174t35.5 -174t95.5 -143t143 -95.5t174 -35.5t174 35.5t143 95.5t95.5 143t35.5 174t-35.5 174t-95.5 143t-143 95.5t-174 35.5zM480 512h64v-384h-64v384zM480 640h64v-64h-64v64z" />
    <glyph glyph-name="warning-alarm" unicode="&#xe61c;" 
d="M467 836l-276 -490h270l-171 -414l543 605h-324l203 299h-245z" />
    <glyph glyph-name="critical-alarm" unicode="&#xe61d;" 
d="M517.5 113q-34.5 0 -60 -26t-25.5 -60t25.5 -59.5t59.5 -25.5t60 25.5t26 59.5q0 35 -25.5 60.5t-60 25.5zM517 830q-37 0 -63 -26t-26 -63l34 -460q0 -44 10.5 -67t44.5 -23t44.5 23t10.5 67l34 460q0 37 -26 63t-63 26z" />
    <glyph glyph-name="info-alarm" unicode="&#xe61f;" 
d="M631 98q-51 -77 -100 -116t-117 -39q-50 8 -71.5 39.5t-10.5 69.5l129 425q2 8 -1.5 15.5t-10.5 9.5q-15 6 -44 -26l-77 -94v53q44 66 107 111t112 45q45 -4 67 -36t13 -74l-129 -427q-3 -17 12 -22q8 -3 21 5t25 21l77 94q1 -9 -0.5 -30.5t-1.5 -23.5zM613.5 653
q-37.5 0 -63 25t-25.5 64t25.5 63.5t63 24.5t63.5 -24.5t26 -63.5t-26 -64t-63.5 -25z" />
    <glyph glyph-name="error-alarm" unicode="&#xe618;" 
d="M344 -61q-21 45 -28.5 83t-1.5 70t17 56t31 52q22 33 38 69t20 57l5 20q2 -2 4 -6t8.5 -17.5t9.5 -27.5t5 -36.5t-3 -43.5q47 52 64 127.5t8 119.5q58 -41 99.5 -103.5t60 -133t12.5 -146.5t-39 -140q78 44 131 95t78 101t33.5 102.5t0 100.5t-25.5 94t-40 83.5t-47 69.5
t-42.5 51t-30.5 28q11 -25 14.5 -54t-4 -59.5t-27.5 -48.5q-54 204 -192 297q-33 23 -57 30q25 -170 -170 -407q-2 49 -9 80t-27 68q-3 -43 -24.5 -92.5t-46.5 -101t-34 -92.5q-22 -106 25 -186.5t185 -158.5z" />
    <glyph glyph-name="yunshujukuRDS--" unicode="&#xe6e1;" 
d="M913 -128h-802q-47 0 -79 32t-32 79v802q0 47 32 79t79 32h802q47 0 79 -32t32 -79v-802q0 -47 -32 -79t-79 -32zM111 868q-36 0 -59.5 -23.5t-23.5 -59.5v-802q0 -36 23.5 -59.5t59.5 -23.5h802q36 0 59.5 23.5t23.5 59.5v802q0 36 -23.5 59.5t-59.5 23.5h-802zM227 380
l-94 163l94 163h188l94 -163l-94 -163h-188zM603 380l-94 163l94 163h189l94 -163l-94 -163h-189zM415 55l-94 163l94 162h188l94 -162l-94 -163h-188z" />
    <glyph glyph-name="resource-apply" unicode="&#xe623;" 
d="M283 32q-93 0 -158 63t-65 153q0 87 62 149.5t151 66.5q5 112 89 191t201 79q68 0 129.5 -30t102.5 -83q7 -10 5.5 -23t-11.5 -20.5t-22.5 -6t-20.5 11.5q-32 42 -81 65.5t-102 23.5q-95 0 -161.5 -64t-66.5 -155q0 -3 1 -16v-2q2 -15 -9 -25q-10 -10 -24 -9l-22 2
q-66 0 -113 -45.5t-47 -109.5t47.5 -109t114.5 -45q29 0 55 9q12 5 24 -0.5t16 -18.5q4 -12 -1.5 -23.5t-17.5 -15.5q-36 -13 -76 -13zM815 322h-128q-13 0 -22 9t-9 22v144q0 13 9 22t21.5 9t21.5 -9t9 -22v-114h98q12 0 21 -9t9 -21.5t-9 -21.5t-21 -9zM656 46v91
q2 12 11 19l178 149q9 8 22 6.5t21 -10.5l48 -58q8 -10 8 -23q-1 -13 -11 -21l-176 -147q-8 -7 -19 -7zM715 117v-10h10l144 120l-9 11zM696 474l96 -95v-65h61v78q0 14 -9 22l-114 112q-9 9 -21 9h-240q-13 0 -22 -9.5t-9 -21.5v-428q0 -13 9 -22t22 -9h138v61h-107v367
h196v1z" />
    <glyph glyph-name="trash" unicode="&#xe627;" 
d="M850 615v-31q0 -6 -4 -11q-4 -4 -11 -4h-46v-456q0 -39 -23 -69q-22 -29 -54 -29h-400q-32 0 -54 28q-22 29 -22 68v458h-47q-6 0 -11 4q-4 4 -4 11v31q0 6 4 11q4 4 11 4h149l34 81q7 18 26 30q18 12 38 12h153q20 0 38 -12t26 -30l34 -81h149q6 0 11 -4q3 -5 3 -11z
M728 113v455h-431v-455q0 -11 4 -20q2 -8 7 -13q4 -4 5 -4h400q1 0 5 4q2 3 7 13q3 16 3 20zM420 461v-277q0 -7 -4 -11q-4 -5 -12 -5h-30q-7 0 -12 5q-4 4 -4 11v277q0 6 4 11q5 4 12 4h30q7 0 12 -4q4 -5 4 -11zM404 630h216l-23 57q-3 4 -8 5h-153q-5 -1 -8 -5zM543 461
v-277q0 -7 -4 -11q-4 -5 -12 -5h-30q-7 0 -12 5q-4 4 -4 11v277q0 6 4 11q4 4 12 4h30q7 0 12 -4q4 -5 4 -11zM666 461v-277q0 -7 -4 -11q-4 -5 -12 -5h-30q-7 0 -12 5q-4 4 -4 11v277q0 6 4 11q4 4 12 4h30q7 0 12 -4q4 -4 4 -11z" />
    <glyph glyph-name="question-circle" unicode="&#xe629;" 
d="M512 768q77 0 150 -30q70 -30 121 -83q53 -53 83 -121q30 -72 30 -150q0 -77 -30 -150q-30 -70 -83 -121q-22 -22 -57.5 -46.5t-63.5 -36.5q-72 -30 -150 -30q-77 0 -150 30q-70 30 -121 83q-22 22 -46.5 57.5t-36.5 63.5q-30 72 -30 150q0 77 30 150q30 70 83 121
q53 53 121 83q72 30 150 30zM512 832q-185 0 -316.5 -131.5t-131.5 -316.5t131.5 -316.5t316.5 -131.5t316.5 131.5t131.5 316.5t-131.5 316.5t-316.5 131.5zM650 580q-27 30 -63.5 47t-74.5 17q-73 0 -125 -48t-52 -115q0 -14 2 -25q3 -13 13 -20.5t23 -4.5q12 2 19.5 12.5
t5.5 22.5q-1 5 -1 15q0 42 33.5 71.5t81.5 29.5q25 0 50 -12t42 -31q26 -29 23 -55q-6 -56 -68 -96q-31 -22 -54.5 -59t-23.5 -76v-10h61v10q0 23 16.5 47t34.5 36q86 58 95 141q6 54 -38 103zM512 169zM465 169.5q0 -19.5 14 -33t33 -13.5t33 13.5t14 33t-14 33t-33 13.5
t-33 -13.5t-14 -33z" />
    <glyph glyph-name="close" unicode="&#xe62f;" 
d="M464 384l-263 -263q-9 -10 -9 -24t10 -24q9 -9 23 -9.5t24 9.5l264 263l263 -263q9 -10 23 -10t24 10t10 24t-9 24l-263 263l263 263q9 10 9 24t-10 24q-9 9 -23 9.5t-24 -9.5l-263 -263l-264 263q-9 10 -23 10t-24 -10t-10 -24t9 -24z" />
    <glyph glyph-name="pencil-square" unicode="&#xe635;" 
d="M796 -2h-568q-42 0 -72 30t-30 72v568q0 42 30 72t72 30h383v-61h-383q-17 0 -29 -12t-12 -29v-568q0 -17 12 -29t29 -12h568q17 0 29 12t12 29v377h61v-377q0 -42 -30 -72t-72 -30zM476.5 212q-19.5 0 -32.5 13l-89 89q-13 14 -13 33.5t13 32.5l382 382q13 13 32.5 13
t32.5 -13l89 -89q14 -14 14 -33t-14 -33l-382 -382q-13 -13 -32.5 -13zM409 347l68 -67l360 360l-67 68zM696 673l102 -102l-43 -43l-102 102zM282 125q-13 0 -22 9q-14 15 -6 34l86 188q7 15 23 17.5t27 -8.5l103 -106q12 -11 8 -27q-3 -16 -18 -22l-190 -83q-5 -2 -11 -2z
M378 290l-34 -74l75 32z" />
    <glyph glyph-name="youjian" unicode="&#xe637;" 
d="M806 34h-591q-38 0 -65.5 27t-27.5 65v343q0 30 19 55l49 -37q-6 -7 -6 -18v-343q0 -12 9 -21t22 -9h591q13 0 22 9t9 21v343q0 12 -8 20l47 40q22 -27 22 -60v-343q0 -38 -27 -65t-65 -27zM402 621l-32 52l82 53q25 15 58 15t58 -15l76 -48l-33 -52l-76 47
q-10 6 -25.5 6t-25.5 -6zM510 238q-33 0 -57 15l-293 184q-31 20 -31 52t31 52l68 43l33 -53l-68 -42v0v0l292 -184q10 -6 25.5 -6t25.5 6l292 184v0l-66 41l33 53l66 -42q32 -20 32 -52t-32 -52l-292 -184q-26 -15 -59 -15zM804 409h-61v177q0 12 -9 21t-22 9h-406
q-13 0 -22 -9t-9 -21v-166h-61v166q0 38 27 65t65 27h406q38 0 65 -27t27 -65v-177zM324 577h375v-62h-375v62zM324 497h375v-61h-375v61z" />
    <glyph glyph-name="dingding" unicode="&#xe639;" 
d="M822 336h-94q7 18 31.5 65t31.5 61l24 46l3 10q0 43 -53 74q-30 17 -120 48q-41 14 -63 22q-33 12 -76 29.5t-80.5 33.5t-70 30.5t-52.5 23l-20 8.5l-2 1l-3 1q-20 5 -34 -5q-14 -9 -19 -29v-2q-3 -39 14 -93t36 -76q-2 -2 -3 -4q-15 -18 -6 -43q9 -39 35 -76.5t57 -50.5
l-1 -7q-6 -33 37 -70q50 -46 94 -52q24 -3 43 5q10 3 15 5l-20 -87h68l-65 -259zM581 364l-76 -22q-24 -7 -70 36q-1 0 -2.5 1.5l-1.5 1.5q8 2 25 4t22 3l10 2l75 9q12 1 20.5 10t8.5 21q0 13 -9 22t-22 9h-2q-137 -3 -172 3q-11 2 -27.5 20.5t-26.5 42.5q76 -19 216 -47
q4 -1 8 -1q12 0 21 9t9 21q0 11 -6 19t-15 11q-210 64 -245 85q-8 10 -18.5 38.5t-14.5 54.5q162 -73 272 -114q6 -2 64 -22q33 -12 49 -17.5t40 -16t34 -18.5t9 -15q0 -2 -6 -15l-3 -6l-116 -220h68l-37 -50l10 41h-69l26 110z" />
    <glyph glyph-name="plus-square" unicode="&#xe63d;" 
d="M707 388h-390q-12 0 -21 9t-9 21.5t9 21.5t21 9h390q12 0 21 -9t9 -21.5t-9 -21.5t-21 -9zM512 193q-13 0 -22 9t-9 22v389q0 13 9 22t22 9t22 -9t9 -22v-389q0 -13 -9 -22t-22 -9zM831 68h-640q-13 0 -22 9t-9 22v640q0 12 9 21.5t22 9.5h640q13 0 22 -9.5t9 -21.5v-640
q0 -13 -9 -22t-22 -9zM222 130h578v578h-578v-578z" />
  </font>
</defs>
</svg>
